<?xml version="1.0" standalone="no"?>
<!DOCTYPE svg PUBLIC "-//W3C//DTD SVG 20010904//EN"
 "http://www.w3.org/TR/2001/REC-SVG-20010904/DTD/svg10.dtd">
<svg version="1.0" xmlns="http://www.w3.org/2000/svg"
 width="132.000000pt" height="114.000000pt" viewBox="0 0 132.000000 114.000000"
 preserveAspectRatio="xMidYMid meet">

<g transform="translate(0.000000,114.000000) scale(0.100000,-0.100000)"
fill="#000000" stroke="none">
<path d="M210 850 c0 -44 3 -50 21 -50 37 0 59 19 59 51 0 22 -6 32 -26 39
-48 19 -54 14 -54 -40z m59 16 c15 -18 3 -46 -20 -46 -14 0 -19 7 -19 30 0 32
19 40 39 16z"/>
<path d="M326 868 c-19 -11 -21 -42 -3 -56 6 -5 24 -10 40 -10 24 0 27 4 27
33 0 27 -5 34 -24 37 -13 3 -31 1 -40 -4z m39 -33 c0 -28 -29 -25 -33 3 -3 19
0 23 15 20 10 -2 18 -12 18 -23z"/>
<path d="M410 846 c0 -32 26 -53 48 -39 19 11 29 63 13 63 -5 0 -11 -12 -13
-27 -4 -34 -22 -33 -26 2 -4 32 -22 33 -22 1z"/>
<path d="M500 835 c0 -19 5 -35 10 -35 6 0 10 13 10 29 0 16 6 32 13 34 6 3 2
6 -10 6 -20 1 -23 -4 -23 -34z"/>
</g>
</svg>
