<svg width="235" height="162" viewBox="0 0 235 162" fill="none" xmlns="http://www.w3.org/2000/svg">
<g clip-path="url(#clip0_222_3436)">
<path d="M171.808 162C165.31 160.939 159.063 160.037 153.066 159.293L155.375 154.476C154.574 154.197 151.1 156.984 151.1 156.984L154.039 143.051C150.031 143.608 148.161 157.82 148.161 157.82L143.618 153.083L145.854 158.446C127.503 156.435 111.667 155.808 98.3559 155.952L100.333 151.829C99.5309 151.55 96.0574 154.337 96.0574 154.337L98.9965 140.404C94.9886 140.961 93.1182 155.173 93.1182 155.173L88.5758 150.435L90.9441 156.116C81.8258 156.393 72.7272 157.157 63.684 158.406C65.6563 151.998 72.544 145.838 72.544 145.838C67.248 147.556 64.4928 150.355 63.0667 152.95C62.7782 139.785 64.7202 126.67 68.8033 114.209C68.8033 114.209 58.1154 139.289 59.7185 156.009L59.922 158.979C50.6237 160.491 45.9579 162 45.9579 162H171.808Z" fill="#3F3D56"/>
<path d="M196.302 127.484C195.668 127.484 195.048 127.288 194.521 126.92C193.994 126.553 193.583 126.031 193.34 125.42C193.097 124.808 193.034 124.136 193.158 123.487C193.281 122.839 193.587 122.243 194.035 121.775C194.484 121.308 195.055 120.989 195.677 120.86C196.299 120.731 196.944 120.797 197.529 121.05C198.115 121.304 198.616 121.732 198.968 122.282C199.321 122.832 199.509 123.478 199.509 124.14C199.508 125.026 199.17 125.876 198.569 126.503C197.968 127.13 197.153 127.483 196.302 127.484ZM196.302 121.353C195.774 121.353 195.257 121.517 194.818 121.823C194.379 122.129 194.036 122.564 193.834 123.073C193.632 123.583 193.579 124.143 193.682 124.683C193.785 125.224 194.039 125.721 194.413 126.11C194.787 126.5 195.263 126.765 195.781 126.873C196.299 126.98 196.837 126.925 197.325 126.714C197.813 126.503 198.231 126.146 198.524 125.688C198.818 125.23 198.974 124.691 198.974 124.14C198.974 123.401 198.692 122.693 198.191 122.17C197.69 121.648 197.011 121.354 196.302 121.353Z" fill="#3F3D56"/>
<path d="M221.907 161.561H216.633V156.06H221.907V161.561ZM217.038 161.138H221.502V156.483H217.038V161.138Z" fill="#3F3D56"/>
<path d="M43.3244 161.862L39.7266 157.839L43.5839 154.087L47.1817 158.11L43.3244 161.862ZM40.3 157.86L43.3443 161.264L46.6082 158.089L43.5639 154.685L40.3 157.86Z" fill="#3F3D56"/>
<path d="M235 161.251H5.79077V161.808H235V161.251Z" fill="#3F3D56"/>
<path d="M147.887 37.2738V55.5762C147.887 55.7453 147.822 55.9074 147.707 56.027C147.593 56.1465 147.437 56.2139 147.275 56.2144H146.84V151.558C146.839 154.197 145.834 156.727 144.046 158.593C142.257 160.458 139.83 161.506 137.301 161.507H80.1765C78.924 161.506 77.6838 161.249 76.5267 160.749C75.3696 160.249 74.3182 159.516 73.4327 158.592C72.5472 157.669 71.8448 156.572 71.3656 155.365C70.8865 154.158 70.64 152.865 70.6402 151.558V59.5583H70.325C70.2106 59.5585 70.1008 59.5114 70.0196 59.4273C69.9385 59.3432 69.8926 59.229 69.8921 59.1097V48.6933C69.8921 48.634 69.9033 48.5753 69.925 48.5205C69.9468 48.4658 69.9787 48.416 70.0189 48.3741C70.0591 48.3321 70.1068 48.2989 70.1593 48.2762C70.2118 48.2535 70.2681 48.2419 70.325 48.2419H70.6402V44.3183H70.3223C70.2022 44.3178 70.0872 44.2677 70.0025 44.1789C69.9179 44.09 69.8705 43.9698 69.8707 43.8446V33.5703C69.871 33.4455 69.9187 33.326 70.0033 33.2377C70.0879 33.1495 70.2026 33.0997 70.3223 33.0994H70.6402V27.7435H70.3169C70.2643 27.7436 70.2121 27.7328 70.1635 27.7119C70.1148 27.6909 70.0706 27.6601 70.0334 27.6213C69.9961 27.5824 69.9666 27.5363 69.9465 27.4856C69.9264 27.4348 69.9161 27.3805 69.9161 27.3255V21.7189C69.9159 21.6077 69.958 21.5009 70.0331 21.422C70.1082 21.3432 70.2103 21.2986 70.3169 21.2981H70.6402V9.94542C70.6403 7.30776 71.6451 4.77816 73.4335 2.91305C75.2218 1.04794 77.6474 9.60708e-05 80.1765 1.01788e-10H137.301C139.83 -1.19243e-05 142.256 1.04771 144.045 2.91276C145.834 4.77782 146.839 7.30747 146.84 9.94542V36.6356H147.275C147.437 36.6361 147.593 36.7034 147.707 36.823C147.822 36.9426 147.887 37.1046 147.887 37.2738Z" fill="#3F3D56"/>
<path d="M111.491 5.10156H102.208C101.833 5.10156 101.529 5.41869 101.529 5.80989V6.64661C101.529 7.03781 101.833 7.35494 102.208 7.35494H111.491C111.866 7.35494 112.17 7.03781 112.17 6.64661V5.80989C112.17 5.41869 111.866 5.10156 111.491 5.10156Z" fill="#E6E8EC"/>
<path d="M115.004 7.50644C115.681 7.50644 116.23 6.93421 116.23 6.22832C116.23 5.52243 115.681 4.9502 115.004 4.9502C114.328 4.9502 113.779 5.52243 113.779 6.22832C113.779 6.93421 114.328 7.50644 115.004 7.50644Z" fill="#E6E8EC"/>
<path d="M142.272 11.9128V152.383C142.273 153.297 142.083 154.199 141.716 155.028C141.348 155.857 140.812 156.593 140.145 157.185C139.05 158.158 137.658 158.692 136.22 158.692H81.5379C80.5649 158.694 79.6061 158.45 78.743 157.982C78.5402 157.873 78.3439 157.752 78.1551 157.619C77.3333 157.041 76.6601 156.261 76.1947 155.348C75.7293 154.435 75.4859 153.417 75.4858 152.383V11.9128C75.4858 11.0839 75.6423 10.2631 75.9464 9.49733C76.2506 8.73155 76.6964 8.03574 77.2584 7.44964C77.8203 6.86354 78.4875 6.39862 79.2218 6.08144C79.9561 5.76427 80.7431 5.60104 81.5379 5.60107H89.7221V6.69621C89.7221 8.07455 90.2471 9.39643 91.1817 10.3711C92.1162 11.3457 93.3837 11.8932 94.7053 11.8932H122.515C123.837 11.8932 125.104 11.3457 126.039 10.3711C126.973 9.39643 127.498 8.07455 127.498 6.69621V5.60107H136.22C137.015 5.60081 137.802 5.76388 138.536 6.08097C139.27 6.39807 139.938 6.86297 140.5 7.44912C141.062 8.03527 141.508 8.73117 141.812 9.49706C142.116 10.2629 142.272 11.0838 142.272 11.9128Z" fill="#4CAD73"/>
<path opacity="0.3" d="M142.272 132.275V152.383C142.273 153.297 142.083 154.199 141.716 155.028C141.348 155.858 140.812 156.593 140.145 157.185C139.05 158.158 137.658 158.693 136.22 158.692H81.5379C80.5649 158.694 79.6061 158.45 78.743 157.982C78.5402 157.873 78.3439 157.752 78.1551 157.62C77.3333 157.041 76.6601 156.261 76.1947 155.348C75.7293 154.436 75.4859 153.417 75.4858 152.383V132.284C84.655 123.688 96.5482 118.932 108.877 118.93C121.206 118.929 133.101 123.682 142.272 132.275Z" fill="white"/>
<path opacity="0.3" d="M139.02 157.976C138.157 158.449 137.195 158.695 136.22 158.692H81.5379C80.565 158.694 79.6061 158.45 78.743 157.982C81.2185 151.773 85.4019 146.467 90.7653 142.735C96.1287 139.003 102.432 137.01 108.88 137.01C115.328 137.009 121.631 139 126.995 142.732C132.359 146.463 136.544 151.768 139.02 157.976Z" fill="white"/>
<path opacity="0.3" d="M127.119 158.313C126.597 158.6 126.015 158.748 125.425 158.747H92.3353C91.7465 158.748 91.1663 158.6 90.644 158.317C92.142 154.559 94.6735 151.349 97.919 149.09C101.165 146.832 104.979 145.626 108.881 145.626C112.782 145.626 116.597 146.83 119.843 149.088C123.089 151.346 125.621 154.556 127.119 158.313Z" fill="white"/>
<path d="M122.789 59.9819C117.304 59.9819 111.284 58.8926 106.585 55.2168C100.042 50.0991 91.9809 50.3722 86.3706 51.5027C82.6441 52.26 79.027 53.5165 75.6094 55.241L75.3623 54.7468C78.8216 52.9998 82.483 51.7265 86.2553 50.9583C91.9758 49.8037 100.202 49.5277 106.906 54.771C119.464 64.5937 141.951 55.7715 142.176 55.6816L142.368 56.2019C138.151 57.7694 133.789 58.8767 129.354 59.5059C127.178 59.8155 124.985 59.9745 122.789 59.9819Z" fill="white"/>
<path opacity="0.3" d="M75.4833 54.9941C75.4833 54.9941 93.9199 50.337 106.745 56.7134C119.571 63.0897 142.283 56.6661 142.283 56.6661" fill="white"/>
<path opacity="0.3" d="M92.8888 62.2283C90.6616 62.2179 88.4405 61.9866 86.2553 61.5375C82.483 60.7694 78.8216 59.496 75.3623 57.7491L75.6094 57.2549C79.027 58.9794 82.6441 60.2359 86.3706 60.9931C91.9806 62.1235 100.042 62.3968 106.585 57.2791C113.283 52.0403 122.664 52.055 129.354 52.9899C133.789 53.6191 138.151 54.7264 142.368 56.294L142.176 56.8143C141.95 56.7241 119.464 47.9017 106.906 57.7248C102.51 61.1633 97.4584 62.2283 92.8888 62.2283Z" fill="white"/>
<path opacity="0.3" d="M92.9796 59.9843C83.7254 59.9843 75.5074 56.5219 75.3842 56.469L75.5877 55.9535C75.7706 56.0322 94.0479 63.728 106.609 55.9715C119.388 48.0799 142.121 55.1241 142.349 55.1962L142.194 55.7296C141.969 55.6583 119.458 48.6847 106.881 56.451C102.59 59.1014 97.6523 59.9843 92.9796 59.9843Z" fill="white"/>
<path opacity="0.3" d="M75.4858 55.7827C75.4858 55.7827 93.9198 62.1591 106.745 55.7827C119.571 49.4064 142.272 55.1802 142.272 55.1802" fill="white"/>
<path d="M147.03 72.842V80.9658C147.03 80.9658 147.654 90.0644 151.081 94.6137C151.081 94.6137 156.689 102.9 157.468 101.113L156.509 95.2287L153.262 92.0141L151.548 81.9407L151.081 72.842H147.03Z" fill="#FFB8B8"/>
<path d="M181.46 146.281V152.292L176.786 154.08V147.093L181.46 146.281Z" fill="#FFB8B8"/>
<path d="M171.957 145.631L175.073 152.942L170.711 154.892L169.776 147.743L171.957 145.631Z" fill="#FFB8B8"/>
<path d="M179.746 89.5769C179.746 89.5769 185.978 148.23 183.641 148.393C181.304 148.555 176.786 151.642 176.786 149.53C176.786 147.418 173.203 119.96 173.203 119.96L169.776 105.824V125.321L173.359 147.418C173.359 147.418 169.932 152.13 167.439 149.368L162.142 127.759C162.142 127.759 155.131 94.9386 155.443 92.339C155.443 92.339 171.49 78.0412 179.746 89.5769Z" fill="#2F2E41"/>
<path d="M178.5 152.617C178.5 152.617 179.747 149.855 182.551 151.642L184.888 154.567C184.888 154.567 190.912 159.771 186.637 160.885C182.231 162.034 179.591 160.812 179.591 160.812C179.591 160.812 178.812 160.324 178.189 160.324C177.565 160.324 176.163 159.187 176.163 158.862C176.163 158.537 176.631 152.78 176.631 152.78C176.807 152.69 177.005 152.658 177.2 152.687C177.394 152.716 177.576 152.805 177.721 152.942C178.189 153.43 178.5 152.617 178.5 152.617Z" fill="#2F2E41"/>
<path d="M169.308 151.643C169.308 151.643 172.268 149.205 173.671 151.968C173.671 151.968 174.553 152.293 174.657 151.968C174.761 151.643 175.54 151.48 175.54 153.267C175.54 155.055 176.386 159.512 175.607 159.675C174.828 159.837 174.049 160.325 174.205 160.974C174.361 161.624 173.359 161.716 169.776 161.554C166.193 161.391 166.037 159.929 166.037 159.929C166.037 159.929 166.037 157.817 166.972 156.679C167.906 155.542 169.308 151.643 169.308 151.643Z" fill="#2F2E41"/>
<path d="M163.544 45.2214C163.544 45.2214 162.765 51.233 167.751 53.3452C172.736 55.4574 156.689 62.4438 155.132 58.3819C153.574 54.32 155.443 53.0202 155.443 53.0202C155.443 53.0202 157.001 51.3955 155.599 47.0087L163.544 45.2214Z" fill="#FFB8B8"/>
<path d="M158.559 49.4458C162.345 49.4458 165.414 46.2451 165.414 42.2969C165.414 38.3486 162.345 35.1479 158.559 35.1479C154.773 35.1479 151.704 38.3486 151.704 42.2969C151.704 46.2451 154.773 49.4458 158.559 49.4458Z" fill="#FFB8B8"/>
<path d="M166.504 55.2947C166.504 55.2947 161.831 57.8943 157.313 55.9446C152.795 53.9949 152.95 62.4436 152.95 62.4436L155.287 68.7801L171.49 67.1554L170.399 57.4069L166.504 55.2947Z" fill="#F2F2F2"/>
<path d="M164.182 49.7354C165.012 49.919 165.792 50.295 166.463 50.8354C167.135 51.3759 167.681 52.067 168.062 52.8576L175.54 55.2947L177.41 58.0568L175.229 78.0413C175.229 78.0413 179.279 82.1031 179.279 84.3778C179.279 86.6525 184.264 94.4513 181.772 93.4764C179.279 92.5016 174.761 89.0896 174.761 89.0896C174.761 89.0896 163.388 89.577 159.805 92.8265C156.222 96.076 154.82 95.1012 154.82 95.1012C154.82 95.1012 151.081 78.2037 150.925 75.6041C150.769 73.0045 146.407 57.4069 146.407 57.4069L154.197 52.8576L156.181 50.5099L161.675 59.6816L166.66 53.345C166.66 53.345 164.197 51.3249 164.182 49.7354Z" fill="#3F3D56"/>
<path d="M179.746 70.5674L180.681 75.7666C180.681 75.7666 184.888 92.0141 184.264 97.5383C184.264 97.5383 184.732 109.886 182.083 108.424C179.435 106.962 180.837 98.0257 180.837 98.0257L177.098 81.9407L175.073 72.5171L179.746 70.5674Z" fill="#FFB8B8"/>
<path d="M175.852 57.082L177.41 58.0569C177.41 58.0569 183.33 70.8924 181.928 71.8673C180.525 72.8421 174.45 74.9543 174.45 74.9543L175.852 57.082Z" fill="#3F3D56"/>
<path d="M150.146 57.4071L146.485 57.3257L145.628 58.8692L146.719 74.6294L152.327 75.9291L150.146 57.4071Z" fill="#3F3D56"/>
<path d="M164.141 36.2508L165.376 35.7822C165.376 35.7822 162.793 33.088 159.199 33.3223L160.21 32.268C160.21 32.268 157.739 31.3309 155.492 33.7908C154.311 35.084 152.945 36.604 152.093 38.3163H150.77L151.322 39.4682L149.389 40.6201L151.373 40.4131C151.185 41.4076 151.25 42.4361 151.561 43.3964L152.01 44.6849C152.01 44.6849 153.807 40.9364 153.807 40.4678V41.6393C153.807 41.6393 155.043 40.585 155.043 39.8822L155.717 40.7021L156.054 39.4136L160.21 40.7021L159.536 39.6479L162.119 39.9993L161.108 38.7107C161.108 38.7107 164.029 40.2336 164.141 41.5221C164.253 42.8107 165.024 44.4903 165.024 44.4903L165.959 43.353C165.959 43.353 167.398 38.0079 164.141 36.2508Z" fill="#2F2E41"/>
<path d="M164.323 43.8403C164.624 43.8403 164.868 43.1856 164.868 42.378C164.868 41.5705 164.624 40.9158 164.323 40.9158C164.022 40.9158 163.778 41.5705 163.778 42.378C163.778 43.1856 164.022 43.8403 164.323 43.8403Z" fill="#FFB8B8"/>
<path d="M11.1245 152.432C14.4453 158.855 21.4933 161.613 21.4933 161.613C21.4933 161.613 23.1572 153.956 19.8363 147.533C16.5155 141.11 9.46749 138.353 9.46749 138.353C9.46749 138.353 7.80362 146.01 11.1245 152.432Z" fill="#3F3D56"/>
<path d="M13.407 150.319C19.4025 154.081 21.7116 161.553 21.7116 161.553C21.7116 161.553 14.3 162.926 8.30453 159.164C2.30905 155.403 0 147.93 0 147.93C0 147.93 7.41155 146.558 13.407 150.319Z" fill="#4CAD73"/>
<path opacity="0.3" d="M75.4858 54.994C75.4858 54.994 93.9198 44.9622 106.745 54.994C119.571 65.0258 142.272 55.9419 142.272 55.9419" fill="white"/>
<path d="M108.95 157.075C110.573 157.075 111.889 155.702 111.889 154.009C111.889 152.316 110.573 150.944 108.95 150.944C107.326 150.944 106.01 152.316 106.01 154.009C106.01 155.702 107.326 157.075 108.95 157.075Z" fill="white"/>
</g>
<defs>
<clipPath id="clip0_222_3436">
<rect width="235" height="162" fill="white"/>
</clipPath>
</defs>
</svg>
