<svg width="247" height="139" viewBox="0 0 247 139" fill="none" xmlns="http://www.w3.org/2000/svg">
<g clip-path="url(#clip0_287_1449)">
<path d="M240.027 74.5449C239.648 74.3093 239.322 73.9872 239.071 73.6012C238.82 73.2152 238.651 72.7748 238.576 72.3109C238.5 71.8471 238.52 71.3711 238.634 70.9165C238.748 70.4619 238.954 70.0397 239.236 69.6797L236.113 45.1296L242.619 45.4731L243.64 69.4191C244.171 69.9691 244.496 70.7095 244.554 71.5001C244.611 72.2906 244.397 73.0764 243.951 73.7083C243.506 74.3402 242.86 74.7745 242.137 74.9287C241.414 75.0829 240.663 74.9463 240.027 74.5449Z" fill="#A0616A"/>
<path d="M243.512 45.7987C243.378 45.9676 243.207 46.0975 243.015 46.1765L237.169 48.5761C236.875 48.6966 236.549 48.6915 236.259 48.5619C235.969 48.4322 235.736 48.1878 235.608 47.8789L230.429 35.3621C229.932 34.201 229.847 32.8843 230.191 31.6607C230.446 30.7874 230.914 30.004 231.548 29.3932C232.181 28.7823 232.957 28.3665 233.791 28.1897C234.434 28.0476 235.097 28.0576 235.735 28.2192C236.5 28.4026 237.21 28.788 237.801 29.3408C238.392 29.8935 238.846 30.5961 239.121 31.3849L243.726 44.4759C243.803 44.6969 243.824 44.9361 243.786 45.1687C243.749 45.4012 243.654 45.6188 243.512 45.7987Z" fill="#CCCCCC"/>
<path d="M213.046 134.466H209.001L207.533 117.608L213.046 117.687V134.466Z" fill="#A0616A"/>
<path d="M206.111 133.223H213.911V138.506H201.199C201.199 137.105 201.716 135.761 202.637 134.771C203.558 133.78 204.808 133.223 206.111 133.223H206.111Z" fill="#2F2E41"/>
<path d="M231.852 134.466H227.807L225.883 117.687H231.853L231.852 134.466Z" fill="#A0616A"/>
<path d="M224.918 133.223H232.718V138.506H220.005C220.005 137.105 220.523 135.761 221.444 134.771C222.365 133.78 223.615 133.223 224.917 133.223H224.918Z" fill="#2F2E41"/>
<path d="M232.361 128.496L226.009 127.991C225.647 127.962 225.308 127.792 225.055 127.513C224.801 127.234 224.652 126.865 224.634 126.476L223.217 94.9911C223.204 94.689 223.088 94.4026 222.892 94.1857C222.696 93.9688 222.433 93.8362 222.153 93.8128C221.873 93.7894 221.594 93.8768 221.369 94.0586C221.145 94.2405 220.989 94.5042 220.932 94.8004L215.023 125.816C214.95 126.197 214.75 126.537 214.46 126.771C214.171 127.005 213.812 127.117 213.45 127.087L207.707 126.592C207.513 126.576 207.324 126.518 207.15 126.423C206.976 126.327 206.822 126.196 206.696 126.036C206.569 125.877 206.473 125.692 206.413 125.492C206.353 125.293 206.33 125.083 206.346 124.874C206.346 124.863 206.347 124.853 206.348 124.842L211.676 67.5451C211.697 67.3212 211.762 67.1045 211.866 66.9093C211.97 66.7141 212.111 66.5448 212.281 66.4125C212.45 66.2802 212.643 66.1878 212.848 66.1416C213.053 66.0953 213.265 66.0961 213.469 66.1439L233.729 70.8805C234.065 70.9597 234.364 71.1611 234.577 71.4506C234.79 71.7402 234.904 72.1 234.899 72.4692L233.955 126.934C233.948 127.352 233.789 127.749 233.512 128.042C233.235 128.335 232.862 128.5 232.474 128.501C232.437 128.501 232.399 128.499 232.361 128.496Z" fill="#2F2E41"/>
<path d="M226.803 19.6381C231.279 19.6381 234.907 15.7362 234.907 10.923C234.907 6.10986 231.279 2.20801 226.803 2.20801C222.328 2.20801 218.699 6.10986 218.699 10.923C218.699 15.7362 222.328 19.6381 226.803 19.6381Z" fill="#A0616A"/>
<path d="M214.23 71.9643C213.451 71.2129 212.832 70.2888 212.417 69.2557C212.001 68.2226 211.799 67.1049 211.823 65.9797C211.823 53.4536 221.905 25.4675 222.221 24.596C222.251 24.3856 222.516 24.2947 223.913 23.2808C225.31 22.2669 227.323 22.1103 229.898 22.8176C230.16 22.8896 230.398 23.0375 230.588 23.2451C230.777 23.4527 230.909 23.7121 230.971 23.9951L231.449 24.7393C231.491 24.9281 231.574 25.1038 231.69 25.2521C231.807 25.4004 231.954 25.5172 232.12 25.593C234.197 26.5339 240.797 30.8723 238.548 47.1995C236.459 62.3663 235.611 71.2844 235.343 74.417C235.312 74.7886 235.16 75.1364 234.915 75.4001C234.669 75.6637 234.345 75.8263 234 75.8596C232.982 75.9574 231.234 76.088 229.154 76.088C224.328 76.0864 217.711 75.3874 214.23 71.9643Z" fill="#CCCCCC"/>
<path d="M204.546 67.3238C204.354 66.901 204.249 66.4378 204.241 65.967C204.233 65.4961 204.321 65.0291 204.498 64.5987C204.676 64.1683 204.939 63.785 205.27 63.4759C205.6 63.1668 205.989 62.9394 206.41 62.8096L216.537 40.5527L221.762 44.7365L210.203 65.2324C210.359 66.0074 210.245 66.8172 209.883 67.5081C209.521 68.199 208.936 68.7231 208.239 68.9809C207.542 69.2388 206.781 69.2125 206.1 68.9071C205.42 68.6016 204.867 68.0383 204.547 67.3238H204.546Z" fill="#A0616A"/>
<path d="M222.333 45.5429C222.135 45.6033 221.926 45.6088 221.725 45.5591L215.627 44.0482C215.321 43.9724 215.053 43.7732 214.879 43.4916C214.705 43.21 214.639 42.8675 214.693 42.5345L216.879 29.0374C217.068 27.7753 217.679 26.6312 218.599 25.8212C219.263 25.2485 220.058 24.8789 220.9 24.7513C221.743 24.6238 222.602 24.743 223.387 25.0965C223.994 25.3632 224.539 25.7689 224.985 26.2855C225.525 26.8959 225.915 27.6415 226.12 28.4548C226.324 29.268 226.337 30.1233 226.157 30.9432L223.197 44.5718C223.147 44.8019 223.04 45.0133 222.888 45.184C222.736 45.3548 222.545 45.4787 222.333 45.5429H222.333Z" fill="#CCCCCC"/>
<path d="M224.906 18.7975C224.511 18.3648 224.22 17.8359 224.057 17.2559C223.894 16.6759 223.864 16.0621 223.969 15.4669C224.251 13.8782 224.417 12.8376 224.449 12.4592C224.557 11.165 223.34 10.1171 222.136 9.94898C222.089 9.94231 222.05 9.93818 222.018 9.93532C222.048 9.96709 222.082 10.0008 222.11 10.0306C222.339 10.2616 222.624 10.5492 222.556 10.846C222.515 11.0245 222.363 11.1513 222.092 11.233C220.209 11.7995 218.759 11.2794 217.529 9.59502C217.183 9.11638 216.945 8.55781 216.834 7.96341C216.393 5.63754 217.568 3.65483 218.631 2.40134C219.507 1.36772 220.928 0.113591 222.72 0.00555904C224.113 -0.0780072 225.771 0.784344 226.265 2.33842C226.499 1.96601 226.811 1.65728 227.175 1.43668C227.539 1.21608 227.946 1.08967 228.363 1.06745C229.315 1.04527 230.251 1.32534 231.055 1.87261C234.985 4.29318 236.673 10.0596 234.743 14.4647C233.528 17.2358 230.897 19.2985 227.877 19.8482C227.687 19.8828 227.496 19.9002 227.304 19.9004C226.856 19.8995 226.412 19.8015 226 19.6123C225.587 19.423 225.215 19.1463 224.904 18.7987L224.906 18.7975Z" fill="#2F2E41"/>
<path d="M107.444 62.1406C107.274 61.7054 106.989 61.3334 106.624 61.0708C106.259 60.8082 105.83 60.6665 105.391 60.6631H64.4042C63.815 60.6634 63.2501 60.9153 62.8335 61.3633C62.4169 61.8113 62.1827 62.4189 62.1824 63.0525V118.816C62.1827 119.45 62.4169 120.057 62.8335 120.505C63.2501 120.954 63.815 121.205 64.4042 121.206H105.392C105.981 121.205 106.546 120.953 106.963 120.505C107.379 120.057 107.613 119.45 107.614 118.816V63.0525C107.615 62.7395 107.558 62.4294 107.446 62.1406H107.444ZM107.119 118.816C107.119 119.309 106.937 119.782 106.612 120.13C106.288 120.478 105.849 120.674 105.391 120.675H64.4042C63.9459 120.675 63.5063 120.479 63.1822 120.131C62.8581 119.782 62.6759 119.31 62.6758 118.817V63.0528C62.6764 62.56 62.8587 62.0876 63.1827 61.7392C63.5067 61.3908 63.946 61.1947 64.4042 61.194H105.392C105.738 61.1954 106.075 61.3074 106.36 61.5157C106.646 61.724 106.868 62.0191 106.997 62.3633C107.022 62.4319 107.044 62.5019 107.062 62.573C107.101 62.7295 107.121 62.8908 107.121 63.0528L107.119 118.816Z" fill="#3F3D56"/>
<path d="M98.8909 73.8288H86.5451C86.2832 73.8288 86.032 73.7169 85.8467 73.5177C85.6615 73.3185 85.5574 73.0483 85.5574 72.7666C85.5574 72.4848 85.6615 72.2147 85.8467 72.0155C86.032 71.8163 86.2832 71.7043 86.5451 71.7043H98.8909C99.1529 71.7043 99.4041 71.8163 99.5893 72.0155C99.7746 72.2147 99.8786 72.4848 99.8786 72.7666C99.8786 73.0483 99.7746 73.3185 99.5893 73.5177C99.4041 73.7169 99.1529 73.8288 98.8909 73.8288Z" fill="#3F3D56"/>
<path d="M98.8909 79.4052H86.5451C86.2832 79.4052 86.032 79.2933 85.8467 79.0941C85.6615 78.8949 85.5574 78.6247 85.5574 78.343C85.5574 78.0613 85.6615 77.7911 85.8467 77.5919C86.032 77.3927 86.2832 77.2808 86.5451 77.2808H98.8909C99.1529 77.2808 99.4041 77.3927 99.5893 77.5919C99.7746 77.7911 99.8786 78.0613 99.8786 78.343C99.8786 78.6247 99.7746 78.8949 99.5893 79.0941C99.4041 79.2933 99.1529 79.4052 98.8909 79.4052Z" fill="#3F3D56"/>
<path d="M80.2106 82.5805H71.1883C70.8937 82.5801 70.6113 82.4541 70.403 82.2301C70.1946 82.006 70.0775 81.7023 70.0771 81.3854V69.9353C70.0775 69.6184 70.1946 69.3147 70.403 69.0906C70.6113 68.8666 70.8937 68.7406 71.1883 68.7402H80.2106C80.5052 68.7406 80.7877 68.8666 80.996 69.0906C81.2043 69.3147 81.3215 69.6184 81.3218 69.9353V81.3854C81.3215 81.7023 81.2043 82.006 80.996 82.2301C80.7877 82.4541 80.5052 82.5801 80.2106 82.5805Z" fill="#4CAD73"/>
<path d="M98.8052 90.8236H70.9038C70.6419 90.8236 70.3907 90.7117 70.2054 90.5125C70.0202 90.3133 69.9161 90.0432 69.9161 89.7614C69.9161 89.4797 70.0202 89.2095 70.2054 89.0103C70.3907 88.8111 70.6419 88.6992 70.9038 88.6992H98.8052C98.9349 88.6992 99.0634 88.7267 99.1832 88.7801C99.303 88.8335 99.4119 88.9117 99.5036 89.0103C99.5954 89.109 99.6681 89.2261 99.7178 89.3549C99.7674 89.4838 99.7929 89.6219 99.7929 89.7614C99.7929 89.9009 99.7674 90.039 99.7178 90.1679C99.6681 90.2968 99.5954 90.4139 99.5036 90.5125C99.4119 90.6112 99.303 90.6894 99.1832 90.7428C99.0634 90.7962 98.9349 90.8236 98.8052 90.8236Z" fill="#CCCCCC"/>
<path d="M98.8052 96.4001H70.9038C70.6419 96.4001 70.3907 96.2881 70.2054 96.0889C70.0202 95.8897 69.9161 95.6196 69.9161 95.3379C69.9161 95.0561 70.0202 94.7859 70.2054 94.5867C70.3907 94.3875 70.6419 94.2756 70.9038 94.2756H98.8052C99.0672 94.2756 99.3184 94.3875 99.5036 94.5867C99.6889 94.7859 99.7929 95.0561 99.7929 95.3379C99.7929 95.6196 99.6889 95.8897 99.5036 96.0889C99.3184 96.2881 99.0672 96.4001 98.8052 96.4001Z" fill="#CCCCCC"/>
<path d="M98.8052 101.976H70.9038C70.6419 101.976 70.3907 101.865 70.2054 101.665C70.0202 101.466 69.9161 101.196 69.9161 100.914C69.9161 100.633 70.0202 100.362 70.2054 100.163C70.3907 99.964 70.6419 99.8521 70.9038 99.8521H98.8052C99.0672 99.8521 99.3184 99.964 99.5036 100.163C99.6889 100.362 99.7929 100.633 99.7929 100.914C99.7929 101.196 99.6889 101.466 99.5036 101.665C99.3184 101.865 99.0672 101.976 98.8052 101.976Z" fill="#CCCCCC"/>
<path d="M98.8052 107.553H70.9038C70.6419 107.553 70.3907 107.441 70.2054 107.242C70.0202 107.042 69.9161 106.772 69.9161 106.49C69.9161 106.209 70.0202 105.939 70.2054 105.739C70.3907 105.54 70.6419 105.428 70.9038 105.428H98.8052C99.0672 105.428 99.3184 105.54 99.5036 105.739C99.6889 105.939 99.7929 106.209 99.7929 106.49C99.7929 106.772 99.6889 107.042 99.5036 107.242C99.3184 107.441 99.0672 107.553 98.8052 107.553Z" fill="#CCCCCC"/>
<path d="M98.8052 113.129H70.9038C70.6419 113.129 70.3907 113.017 70.2054 112.818C70.0202 112.619 69.9161 112.349 69.9161 112.067C69.9161 111.785 70.0202 111.515 70.2054 111.316C70.3907 111.117 70.6419 111.005 70.9038 111.005H98.8052C99.0672 111.005 99.3184 111.117 99.5036 111.316C99.6889 111.515 99.7929 111.785 99.7929 112.067C99.7929 112.349 99.6889 112.619 99.5036 112.818C99.3184 113.017 99.0672 113.129 98.8052 113.129Z" fill="#CCCCCC"/>
<path d="M189.091 139H246.705C246.783 139 246.858 138.966 246.913 138.907C246.969 138.847 247 138.767 247 138.682C247 138.598 246.969 138.517 246.913 138.458C246.858 138.398 246.783 138.365 246.705 138.365H189.091C189.013 138.365 188.938 138.398 188.882 138.458C188.827 138.517 188.796 138.598 188.796 138.682C188.796 138.767 188.827 138.847 188.882 138.907C188.938 138.966 189.013 139 189.091 139Z" fill="#3F3D56"/>
<path d="M85.5917 47.2273C90.856 47.2273 95.1236 42.6378 95.1236 36.9763C95.1236 31.3149 90.856 26.7253 85.5917 26.7253C80.3274 26.7253 76.0598 31.3149 76.0598 36.9763C76.0598 42.6378 80.3274 47.2273 85.5917 47.2273Z" fill="#4CAD73"/>
<path d="M84.6471 40.887C84.4327 40.8874 84.2239 40.8127 84.0524 40.6744L84.0417 40.6658L81.8016 38.8229C81.6977 38.7374 81.6105 38.6308 81.5449 38.509C81.4794 38.3873 81.4368 38.2528 81.4196 38.1133C81.4024 37.9739 81.4109 37.8321 81.4447 37.6962C81.4785 37.5603 81.5368 37.4329 81.6164 37.3212C81.696 37.2095 81.7953 37.1159 81.9086 37.0455C82.0218 36.9751 82.1469 36.9295 82.2766 36.9111C82.4063 36.8928 82.5381 36.9021 82.6645 36.9386C82.7908 36.975 82.9092 37.0379 83.013 37.1236L84.4639 38.3202L87.8927 33.5096C88.0532 33.2844 88.2904 33.137 88.5521 33.0998C88.8137 33.0626 89.0783 33.1388 89.2878 33.3114L89.2881 33.3117L89.2668 33.3434L89.2887 33.3117C89.4979 33.4846 89.6348 33.7397 89.6693 34.0211C89.7038 34.3024 89.6331 34.587 89.4727 34.8124L85.4398 40.4682C85.3465 40.5985 85.2265 40.7039 85.0892 40.7764C84.9519 40.8488 84.8009 40.8862 84.648 40.8857L84.6471 40.887Z" fill="white"/>
<path d="M22.8375 32.2933C26.4048 32.2933 29.2967 29.1833 29.2967 25.3469C29.2967 21.5104 26.4048 18.4004 22.8375 18.4004C19.2702 18.4004 16.3783 21.5104 16.3783 25.3469C16.3783 29.1833 19.2702 32.2933 22.8375 32.2933Z" fill="#CCCCCC"/>
<path d="M22.1972 27.9968C22.052 27.9971 21.9105 27.9466 21.7942 27.8529L21.7872 27.8471L20.2691 26.5971C20.1312 26.4787 20.042 26.3068 20.0207 26.1184C19.9993 25.9299 20.0474 25.74 20.1547 25.5893C20.2621 25.4387 20.42 25.3392 20.5947 25.3124C20.7695 25.2855 20.947 25.3334 21.0893 25.4457L22.0726 26.2565L24.396 22.9978C24.5048 22.8452 24.6655 22.7453 24.8428 22.7201C25.0201 22.6949 25.1994 22.7465 25.3413 22.8635L25.3415 22.8637L25.327 22.8847L25.3418 22.864C25.4835 22.9812 25.5762 23.1541 25.5996 23.3447C25.623 23.5353 25.5751 23.7281 25.4664 23.8808L22.7335 27.714C22.6703 27.8024 22.589 27.8739 22.496 27.923C22.4029 27.9721 22.3006 27.9974 22.197 27.9971L22.1972 27.9968Z" fill="white"/>
<path d="M40.9886 41.6345C40.8545 41.2922 40.6299 40.9996 40.3428 40.7929C40.0557 40.5863 39.7185 40.4747 39.3731 40.4719H7.12112C6.65754 40.4722 6.21302 40.6703 5.88522 41.0229C5.55742 41.3754 5.37316 41.8535 5.37292 42.352V86.23C5.37316 86.7285 5.55742 87.2066 5.88522 87.5591C6.21302 87.9116 6.65754 88.1098 7.12112 88.1101H39.3731C39.8365 88.1094 40.2808 87.9111 40.6085 87.5587C40.9363 87.2062 41.1206 86.7284 41.1213 86.23V42.352C41.122 42.1057 41.0769 41.8618 40.9886 41.6345ZM40.733 86.2303C40.7323 86.6177 40.5889 86.989 40.3342 87.263C40.0795 87.5369 39.7342 87.6912 39.374 87.6919H7.12112C6.76067 87.6919 6.41498 87.5379 6.16011 87.2638C5.90523 86.9897 5.76204 86.6179 5.76204 86.2303V42.352C5.76274 41.9646 5.90616 41.5933 6.16088 41.3193C6.41561 41.0454 6.76089 40.8911 7.12112 40.8904H39.3731C39.6448 40.8916 39.9101 40.9799 40.135 41.144C40.3599 41.3082 40.5341 41.5407 40.6355 41.8118C40.6553 41.8658 40.6724 41.9208 40.6866 41.9767C40.7176 42.0998 40.7333 42.2267 40.7333 42.3542L40.733 86.2303Z" fill="#CCCCCC"/>
<path d="M34.2573 50.8316H24.5428C24.3367 50.8316 24.139 50.7435 23.9933 50.5868C23.8475 50.43 23.7656 50.2174 23.7656 49.9957C23.7656 49.7741 23.8475 49.5615 23.9933 49.4047C24.139 49.248 24.3367 49.1599 24.5428 49.1599H34.257C34.4631 49.1599 34.6608 49.248 34.8066 49.4047C34.9523 49.5615 35.0342 49.7741 35.0342 49.9957C35.0342 50.2174 34.9523 50.43 34.8066 50.5868C34.6608 50.7435 34.4631 50.8316 34.257 50.8316H34.2573Z" fill="#CCCCCC"/>
<path d="M34.2573 55.2197H24.5428C24.3367 55.2197 24.139 55.1317 23.9933 54.9749C23.8475 54.8182 23.7656 54.6056 23.7656 54.3839C23.7656 54.1622 23.8475 53.9496 23.9933 53.7929C24.139 53.6362 24.3367 53.5481 24.5428 53.5481H34.257C34.4631 53.5481 34.6608 53.6362 34.8066 53.7929C34.9523 53.9496 35.0342 54.1622 35.0342 54.3839C35.0342 54.6056 34.9523 54.8182 34.8066 54.9749C34.6608 55.1317 34.4631 55.2197 34.257 55.2197H34.2573Z" fill="#CCCCCC"/>
<path d="M19.5582 57.7181H12.4591C12.2273 57.7179 12.0051 57.6187 11.8412 57.4425C11.6773 57.2662 11.5851 57.0272 11.5848 56.7779V47.7683C11.5851 47.5191 11.6773 47.2801 11.8412 47.1038C12.0051 46.9275 12.2273 46.8284 12.4591 46.8281H19.5582C19.79 46.8285 20.0122 46.9276 20.1761 47.1039C20.34 47.2801 20.4322 47.5191 20.4325 47.7683V56.7779C20.4322 57.0272 20.3401 57.2662 20.1762 57.4425C20.0123 57.6187 19.79 57.7179 19.5582 57.7181Z" fill="#CCCCCC"/>
<path d="M34.1897 64.2041H12.2354C12.0293 64.2041 11.8316 64.1161 11.6859 63.9593C11.5401 63.8026 11.4583 63.59 11.4583 63.3683C11.4583 63.1466 11.5401 62.934 11.6859 62.7773C11.8316 62.6205 12.0293 62.5325 12.2354 62.5325H34.1897C34.3958 62.5325 34.5935 62.6205 34.7392 62.7773C34.885 62.934 34.9669 63.1466 34.9669 63.3683C34.9669 63.59 34.885 63.8026 34.7392 63.9593C34.5935 64.1161 34.3958 64.2041 34.1897 64.2041Z" fill="#CCCCCC"/>
<path d="M34.1897 68.5935H12.2354C12.0293 68.5935 11.8316 68.5055 11.6859 68.3487C11.5401 68.192 11.4583 67.9794 11.4583 67.7577C11.4583 67.536 11.5401 67.3234 11.6859 67.1667C11.8316 67.0099 12.0293 66.9219 12.2354 66.9219H34.1897C34.3958 66.9219 34.5935 67.0099 34.7392 67.1667C34.885 67.3234 34.9669 67.536 34.9669 67.7577C34.9669 67.9794 34.885 68.192 34.7392 68.3487C34.5935 68.5055 34.3958 68.5935 34.1897 68.5935Z" fill="#CCCCCC"/>
<path d="M34.1897 72.9797H12.2354C12.0293 72.9797 11.8316 72.8917 11.6859 72.7349C11.5401 72.5782 11.4583 72.3656 11.4583 72.1439C11.4583 71.9223 11.5401 71.7097 11.6859 71.5529C11.8316 71.3962 12.0293 71.3081 12.2354 71.3081H34.1897C34.3958 71.3081 34.5935 71.3962 34.7392 71.5529C34.885 71.7097 34.9669 71.9223 34.9669 72.1439C34.9669 72.3656 34.885 72.5782 34.7392 72.7349C34.5935 72.8917 34.3958 72.9797 34.1897 72.9797Z" fill="#CCCCCC"/>
<path d="M34.1897 77.3689H12.2354C12.0293 77.3689 11.8316 77.2808 11.6859 77.1241C11.5401 76.9674 11.4583 76.7548 11.4583 76.5331C11.4583 76.3114 11.5401 76.0988 11.6859 75.9421C11.8316 75.7853 12.0293 75.6973 12.2354 75.6973H34.1897C34.3958 75.6973 34.5935 75.7853 34.7392 75.9421C34.885 76.0988 34.9669 76.3114 34.9669 76.5331C34.9669 76.7548 34.885 76.9674 34.7392 77.1241C34.5935 77.2808 34.3958 77.3689 34.1897 77.3689Z" fill="#CCCCCC"/>
<path d="M34.1897 81.7556H12.2354C12.0293 81.7556 11.8316 81.6676 11.6859 81.5108C11.5401 81.3541 11.4583 81.1415 11.4583 80.9198C11.4583 80.6981 11.5401 80.4855 11.6859 80.3288C11.8316 80.172 12.0293 80.084 12.2354 80.084H34.1897C34.3958 80.084 34.5935 80.172 34.7392 80.3288C34.885 80.4855 34.9669 80.6981 34.9669 80.9198C34.9669 81.1415 34.885 81.3541 34.7392 81.5108C34.5935 81.6676 34.3958 81.7556 34.1897 81.7556Z" fill="#CCCCCC"/>
<path d="M0.233847 88.2933H45.5664C45.628 88.2933 45.6872 88.267 45.7308 88.2201C45.7744 88.1732 45.7989 88.1096 45.7989 88.0433C45.7989 87.977 45.7744 87.9134 45.7308 87.8665C45.6872 87.8196 45.628 87.7932 45.5664 87.7932H0.233847C0.203312 87.793 0.173041 87.7993 0.144764 87.8117C0.116487 87.8241 0.0907574 87.8424 0.0690432 87.8655C0.0473289 87.8885 0.0300581 87.916 0.0182126 87.9463C0.00636706 87.9765 0.000177184 88.009 3.75072e-06 88.0419C-0.000169683 88.0747 0.00567316 88.1073 0.0171982 88.1377C0.0287233 88.1681 0.0457078 88.1957 0.0671767 88.2191C0.0886457 88.2424 0.11418 88.261 0.142325 88.2738C0.170469 88.2865 0.20067 88.2932 0.231205 88.2933H0.233847Z" fill="#CCCCCC"/>
<path d="M146.928 32.2933C150.495 32.2933 153.387 29.1833 153.387 25.3469C153.387 21.5104 150.495 18.4004 146.928 18.4004C143.36 18.4004 140.469 21.5104 140.469 25.3469C140.469 29.1833 143.36 32.2933 146.928 32.2933Z" fill="#CCCCCC"/>
<path d="M146.287 27.9968C146.142 27.9971 146.001 27.9466 145.884 27.8529L145.877 27.8471L144.359 26.5971C144.221 26.4787 144.132 26.3068 144.111 26.1184C144.089 25.9299 144.138 25.74 144.245 25.5893C144.352 25.4387 144.51 25.3392 144.685 25.3124C144.86 25.2855 145.037 25.3334 145.18 25.4457L146.163 26.2565L148.486 22.9978C148.595 22.8452 148.756 22.7453 148.933 22.7201C149.11 22.6949 149.29 22.7465 149.432 22.8635L149.432 22.8637L149.417 22.8847L149.432 22.864C149.574 22.9812 149.666 23.1541 149.69 23.3447C149.713 23.5353 149.665 23.7281 149.557 23.8808L146.824 27.714C146.761 27.8024 146.679 27.8739 146.586 27.923C146.493 27.9721 146.391 27.9974 146.287 27.9971L146.287 27.9968Z" fill="white"/>
<path d="M165.079 41.6345C164.945 41.2922 164.72 40.9996 164.433 40.7929C164.146 40.5863 163.809 40.4747 163.463 40.4719H131.211C130.748 40.4722 130.303 40.6703 129.975 41.0229C129.648 41.3754 129.463 41.8535 129.463 42.352V86.23C129.463 86.7285 129.648 87.2066 129.975 87.5591C130.303 87.9116 130.748 88.1098 131.211 88.1101H163.463C163.927 88.1094 164.371 87.9111 164.699 87.5587C165.027 87.2062 165.211 86.7284 165.212 86.23V42.352C165.212 42.1057 165.167 41.8618 165.079 41.6345ZM164.823 86.2303C164.823 86.6177 164.679 86.989 164.424 87.263C164.17 87.5369 163.824 87.6912 163.464 87.6919H131.211C131.033 87.6919 130.856 87.6541 130.691 87.5807C130.526 87.5072 130.377 87.3995 130.25 87.2638C130.124 87.1281 130.024 86.967 129.956 86.7896C129.887 86.6123 129.852 86.4222 129.852 86.2303V42.352C129.853 41.9646 129.996 41.5933 130.251 41.3193C130.506 41.0454 130.851 40.8911 131.211 40.8904H163.463C163.735 40.8916 164 40.9799 164.225 41.144C164.45 41.3082 164.624 41.5407 164.726 41.8118C164.746 41.8658 164.763 41.9208 164.777 41.9767C164.808 42.0998 164.824 42.2267 164.824 42.3542L164.823 86.2303Z" fill="#CCCCCC"/>
<path d="M158.348 50.8316H148.633C148.427 50.8316 148.229 50.7435 148.084 50.5868C147.938 50.43 147.856 50.2174 147.856 49.9957C147.856 49.7741 147.938 49.5615 148.084 49.4047C148.229 49.248 148.427 49.1599 148.633 49.1599H158.347C158.553 49.1599 158.751 49.248 158.897 49.4047C159.043 49.5615 159.124 49.7741 159.124 49.9957C159.124 50.2174 159.043 50.43 158.897 50.5868C158.751 50.7435 158.553 50.8316 158.347 50.8316H158.348Z" fill="#CCCCCC"/>
<path d="M158.348 55.2197H148.633C148.427 55.2197 148.229 55.1317 148.084 54.9749C147.938 54.8182 147.856 54.6056 147.856 54.3839C147.856 54.1622 147.938 53.9496 148.084 53.7929C148.229 53.6362 148.427 53.5481 148.633 53.5481H158.347C158.553 53.5481 158.751 53.6362 158.897 53.7929C159.043 53.9496 159.124 54.1622 159.124 54.3839C159.124 54.6056 159.043 54.8182 158.897 54.9749C158.751 55.1317 158.553 55.2197 158.347 55.2197H158.348Z" fill="#CCCCCC"/>
<path d="M143.649 57.7181H136.549C136.318 57.7179 136.095 57.6187 135.931 57.4425C135.768 57.2662 135.675 57.0272 135.675 56.7779V47.7683C135.675 47.5191 135.768 47.2801 135.931 47.1038C136.095 46.9275 136.318 46.8284 136.549 46.8281H143.649C143.88 46.8285 144.102 46.9276 144.266 47.1039C144.43 47.2801 144.522 47.5191 144.523 47.7683V56.7779C144.523 57.0272 144.43 57.2662 144.266 57.4425C144.103 57.6187 143.88 57.7179 143.649 57.7181Z" fill="#CCCCCC"/>
<path d="M158.28 64.2041H136.326C136.12 64.2041 135.922 64.1161 135.776 63.9593C135.63 63.8026 135.549 63.59 135.549 63.3683C135.549 63.1466 135.63 62.934 135.776 62.7773C135.922 62.6205 136.12 62.5325 136.326 62.5325H158.28C158.486 62.5325 158.684 62.6205 158.829 62.7773C158.975 62.934 159.057 63.1466 159.057 63.3683C159.057 63.59 158.975 63.8026 158.829 63.9593C158.684 64.1161 158.486 64.2041 158.28 64.2041Z" fill="#CCCCCC"/>
<path d="M158.28 68.5935H136.326C136.12 68.5935 135.922 68.5055 135.776 68.3487C135.63 68.192 135.549 67.9794 135.549 67.7577C135.549 67.536 135.63 67.3234 135.776 67.1667C135.922 67.0099 136.12 66.9219 136.326 66.9219H158.28C158.486 66.9219 158.684 67.0099 158.829 67.1667C158.975 67.3234 159.057 67.536 159.057 67.7577C159.057 67.9794 158.975 68.192 158.829 68.3487C158.684 68.5055 158.486 68.5935 158.28 68.5935Z" fill="#CCCCCC"/>
<path d="M158.28 72.9797H136.326C136.12 72.9797 135.922 72.8917 135.776 72.7349C135.63 72.5782 135.549 72.3656 135.549 72.1439C135.549 71.9223 135.63 71.7097 135.776 71.5529C135.922 71.3962 136.12 71.3081 136.326 71.3081H158.28C158.486 71.3081 158.684 71.3962 158.829 71.5529C158.975 71.7097 159.057 71.9223 159.057 72.1439C159.057 72.3656 158.975 72.5782 158.829 72.7349C158.684 72.8917 158.486 72.9797 158.28 72.9797Z" fill="#CCCCCC"/>
<path d="M158.28 77.3689H136.326C136.12 77.3689 135.922 77.2808 135.776 77.1241C135.63 76.9674 135.549 76.7548 135.549 76.5331C135.549 76.3114 135.63 76.0988 135.776 75.9421C135.922 75.7853 136.12 75.6973 136.326 75.6973H158.28C158.486 75.6973 158.684 75.7853 158.829 75.9421C158.975 76.0988 159.057 76.3114 159.057 76.5331C159.057 76.7548 158.975 76.9674 158.829 77.1241C158.684 77.2808 158.486 77.3689 158.28 77.3689Z" fill="#CCCCCC"/>
<path d="M158.28 81.7556H136.326C136.12 81.7556 135.922 81.6676 135.776 81.5108C135.63 81.3541 135.549 81.1415 135.549 80.9198C135.549 80.6981 135.63 80.4855 135.776 80.3288C135.922 80.172 136.12 80.084 136.326 80.084H158.28C158.486 80.084 158.684 80.172 158.829 80.3288C158.975 80.4855 159.057 80.6981 159.057 80.9198C159.057 81.1415 158.975 81.3541 158.829 81.5108C158.684 81.6676 158.486 81.7556 158.28 81.7556Z" fill="#CCCCCC"/>
<path d="M124.324 88.2933H169.657C169.718 88.2933 169.777 88.267 169.821 88.2201C169.865 88.1732 169.889 88.1096 169.889 88.0433C169.889 87.977 169.865 87.9134 169.821 87.8665C169.777 87.8196 169.718 87.7932 169.657 87.7932H124.324C124.294 87.793 124.263 87.7993 124.235 87.8117C124.207 87.8241 124.181 87.8424 124.159 87.8655C124.138 87.8885 124.12 87.916 124.108 87.9463C124.097 87.9765 124.09 88.009 124.09 88.0419C124.09 88.0747 124.096 88.1073 124.107 88.1377C124.119 88.1681 124.136 88.1957 124.157 88.2191C124.179 88.2424 124.204 88.261 124.233 88.2738C124.261 88.2865 124.291 88.2932 124.321 88.2933H124.324Z" fill="#CCCCCC"/>
<path d="M55.842 121.396H113.455C113.534 121.396 113.609 121.363 113.664 121.303C113.72 121.244 113.751 121.163 113.751 121.078C113.751 120.994 113.72 120.913 113.664 120.854C113.609 120.794 113.534 120.761 113.455 120.761H55.842C55.7636 120.761 55.6884 120.794 55.633 120.854C55.5776 120.913 55.5465 120.994 55.5465 121.078C55.5465 121.163 55.5776 121.244 55.633 121.303C55.6884 121.363 55.7636 121.396 55.842 121.396Z" fill="#3F3D56"/>
</g>
<defs>
<clipPath id="clip0_287_1449">
<rect width="247" height="139" fill="white"/>
</clipPath>
</defs>
</svg>
