<svg width="241" height="179" viewBox="0 0 241 179" fill="none" xmlns="http://www.w3.org/2000/svg">
<g clip-path="url(#clip0_287_1319)">
<path opacity="0.1" d="M87.728 177.763C136.179 177.763 175.456 176.427 175.456 174.779C175.456 173.132 136.179 171.796 87.728 171.796C39.2772 171.796 0 173.132 0 174.779C0 176.427 39.2772 177.763 87.728 177.763Z" fill="#4CAD73"/>
<path opacity="0.1" d="M64.6648 5.41712C70.2538 0.664141 79.0266 -0.304543 87.012 0.0740728C112.094 1.2633 134.735 12.8194 154.32 25.8906C161.41 30.6225 168.39 35.7222 172.992 42.2385C182.361 55.5036 179.582 73.8801 166.555 84.8083C162.123 88.5263 156.75 91.3766 151.234 93.9033C141.426 98.3958 130.844 102.002 119.712 103.029C111.774 103.761 103.739 103.166 95.8469 102.144C73.7984 99.2907 52.1563 92.9807 34.017 82.1848C26.0612 77.4498 18.5625 71.563 15.2832 63.903C12.004 56.243 14.1026 46.5361 22.2263 42.0021C25.5862 40.1269 29.6033 39.2799 33.5363 38.4847C39.3254 37.3141 45.2074 36.1602 50.4316 33.7805C55.8275 31.3225 62.2169 26.5692 61.1485 21.1287C60.0021 15.2913 59.0824 10.1645 64.6648 5.41712Z" fill="#4CAD73"/>
<path opacity="0.1" d="M217.537 179C230.495 179 241 178.113 241 177.019C241 175.925 230.495 175.038 217.537 175.038C204.579 175.038 194.075 175.925 194.075 177.019C194.075 178.113 204.579 179 217.537 179Z" fill="#4CAD73"/>
<path d="M122.369 67.4148C121.987 66.7091 119.968 62.3237 119.968 62.3237L116.584 53.9563C116.584 53.9563 114.183 50.4278 114.183 49.7725C114.183 49.1173 109.817 46.4961 109.817 46.4961C109.817 46.4961 106.269 45.488 105.996 45.3872C105.724 45.2864 101.521 43.9597 101.521 43.9597C101.521 43.9597 99.8663 41.8829 99.6306 42.4253L99.6304 42.4267C99.6218 42.413 99.6129 42.4011 99.6044 42.387C99.2663 41.7841 99.0521 41.125 98.9735 40.4454C98.9645 40.385 98.9568 40.3212 98.9488 40.2583C100.039 39.5532 100.932 38.6052 101.552 37.4963C102.171 36.3874 102.498 35.1511 102.504 33.8946C102.503 33.5637 102.479 33.2333 102.434 32.9054C102.464 32.8875 102.495 32.8717 102.528 32.8582C102.595 32.83 102.578 32.8072 102.528 32.7833C102.545 32.7747 102.562 32.7656 102.58 32.7586C102.67 32.7212 102.61 32.6928 102.522 32.6591L102.528 32.6566C102.651 32.6055 102.495 32.5717 102.37 32.5177C102.363 32.4828 102.357 32.4478 102.35 32.4131C102.377 32.3467 102.394 32.2767 102.4 32.2054C102.411 32.2107 102.421 32.2164 102.433 32.2213C102.463 32.0914 102.462 31.9566 102.43 31.827C102.423 31.8533 102.413 31.8792 102.402 31.9044C102.41 31.7869 102.385 31.6696 102.329 31.5646C102.273 31.4597 102.188 31.371 102.084 31.3077C102.078 31.3025 102.071 31.2969 102.065 31.2916L102.296 29.0303C105.709 28.8763 106.308 23.3351 105.53 23.0273C104.751 22.7194 105.53 22.0524 105.53 20.7184C105.53 19.3844 102.955 17.8965 102.955 17.8965C102.955 17.8965 101.877 18.4096 100.201 15.8442C98.5242 13.2789 92.357 12.8684 91.9379 13.5354C91.5188 14.2024 88.7645 15.0746 85.172 16.0495C81.5795 17.0243 82.2381 21.0776 82.8368 21.9498C83.3301 22.6709 83.6189 23.5018 83.6751 24.3613C83.6751 24.8744 84.8127 27.0293 84.8127 27.0293C84.4539 27.776 85.367 31.8666 85.6375 33.0292C85.6332 33.065 85.6287 33.1006 85.625 33.1365C85.6227 33.14 85.6197 33.143 85.6174 33.1465C85.6045 33.1653 85.5929 33.1848 85.5825 33.205C85.5245 33.3255 85.5053 33.4597 85.5273 33.5906C85.5076 33.7337 85.5285 33.8793 85.5879 34.012C85.6085 35.1074 85.874 36.1858 86.3668 37.1753C86.8595 38.1647 87.5682 39.0422 88.4452 39.7491C88.4494 39.819 88.4536 39.8894 88.4576 39.9615C88.5078 40.9111 88.5362 42.0342 88.4838 43.1088C88.4811 43.1638 88.4768 43.2177 88.4737 43.2724C88.2756 43.3106 88.0898 43.3927 87.9312 43.5121C87.7725 43.6315 87.6455 43.7848 87.5604 43.9597C87.222 44.5807 85.2572 45.5384 85.2572 45.5384C85.2572 45.5384 81.8189 45.6896 81.4914 46.2945C81.164 46.8994 76.1975 48.9156 76.1975 48.9156C76.1975 48.9156 73.5778 50.3774 73.9598 52.0408C74.1594 52.91 73.599 54.2603 73.0184 55.3522C71.804 54.9127 70.5393 54.6118 69.2508 54.4557L72.0331 56.9959C71.9748 57.0827 71.9405 57.1319 71.9405 57.1319L70.3578 62.4749C70.3578 62.4749 69.812 64.34 69.2662 64.7936C68.7205 65.2473 69.7574 69.3806 69.7574 69.3806C69.7574 69.3806 69.1571 72.3042 68.6659 73.0603C68.1747 73.8164 69.4299 75.6814 69.4299 75.6814L71.9405 81.1253L78.5989 82.7383C78.5989 82.7383 79.0426 82.8279 79.7596 82.9744C79.737 83.1045 79.714 83.2341 79.6904 83.3633C79.3695 85.0973 78.9481 86.6921 78.4351 87.1236C77.1799 88.1822 77.2344 92.9203 77.2344 92.9203L77.289 99.6244C77.289 99.6244 77.7256 107.891 77.5073 108.193C77.3695 108.384 77.646 108.696 78.3756 108.975C78.3548 109.1 78.3343 109.226 78.315 109.355C78.1098 110.726 78.0182 112.29 78.4897 112.982C78.6945 113.356 78.8065 113.77 78.8172 114.192C78.8172 114.847 79.8541 116.208 79.8541 116.208C79.8541 116.208 79.0355 121.803 80.3999 123.719C81.7643 125.634 82.9104 129.112 82.2555 129.919C82.2555 129.919 81.1094 132.288 81.6552 133.346C82.2009 134.405 81.6552 135.01 80.9457 135.262C80.2361 135.514 80.2973 137.58 80.2973 137.58L81.6006 147.41C81.6006 147.41 82.3101 149.426 81.7097 150.132C81.1094 150.837 81.1094 154.366 82.0372 155.575C82.965 156.785 80.7274 159.003 80.7274 159.003C80.7274 159.003 79.3629 160.868 81.546 161.473C81.546 161.473 81.9826 161.574 81.164 162.38C80.3453 163.187 80.1816 164.195 80.7273 164.548C80.8405 164.612 80.9589 164.669 81.0813 164.716C81.0611 164.835 81.0392 164.959 81.0133 165.09C80.8037 166.143 80.4086 167.514 79.6904 168.177C78.2984 169.538 77.0971 171.066 76.1167 172.722C75.3679 174.077 75.0404 175.345 75.87 175.94C77.8348 177.351 80.3453 177.805 81.8189 177.25C83.2924 176.696 85.3664 174.982 85.3664 174.982L85.8576 173.016C85.8576 173.016 85.5301 171.806 87.1674 171.353C88.8047 170.899 90.3329 169.286 90.3329 169.286V166.673C90.7293 166.457 91.112 166.218 91.479 165.959C91.479 165.959 92.2431 163.388 91.479 162.531C90.7149 161.675 90.442 161.372 91.4244 160.818C92.4068 160.263 92.54 159.053 91.8195 157.995C91.0969 156.936 89.9508 155.374 90.9332 153.156C91.9156 150.938 92.2758 144.133 92.2758 144.133C92.2758 144.133 91.8174 139.496 92.2758 138.437C92.7343 137.379 91.7519 135.262 91.7519 135.262C91.7519 135.262 92.0793 132.641 92.6797 131.431C93.28 130.221 93.7712 123.819 93.7712 123.819C93.7712 123.819 94.8627 121.097 94.8627 119.333C94.8627 117.569 93.1709 113.335 95.6814 112.226C95.6814 112.226 96.7729 113.133 96.3363 116.763C96.3363 116.763 97.5916 120.997 97.5916 122.307C97.5916 123.618 98.5194 128.356 98.5194 128.356C98.5194 128.356 98.6286 129.868 99.0106 130.423C99.3926 130.977 99.0106 132.489 99.0106 132.489C99.0106 132.489 100.43 133.749 100.048 134.556C99.6655 135.362 100.113 137.181 100.113 137.181L99.7746 148.468C99.7746 148.468 98.7923 153.307 101.084 156.231C101.084 156.231 100.266 160.515 99.7746 160.818C99.2835 161.12 101.576 163.741 101.576 163.741C101.576 163.741 100.94 165.439 102.231 165.523V168.328C102.679 169.084 103.293 169.737 104.032 170.244C105.232 171.05 104.741 173.822 104.741 173.822C104.741 173.822 106.269 177.351 110.308 176.595C114.347 175.839 114.892 175.486 114.674 174.226C114.596 173.766 114.421 172.945 114.17 172.014C113.735 170.395 113.07 168.441 112.273 167.477C111.017 165.959 109.981 162.784 109.981 162.784C109.981 162.784 109.489 161.725 109.981 161.372C110.472 161.019 110.253 160.364 110.253 160.364C110.253 160.364 110.731 159.053 110.301 158.247C109.871 157.44 111.127 155.777 111.127 155.777L110.745 148.014L111.127 136.723C111.127 136.723 109.435 134.858 110.144 133.75C110.854 132.641 109.326 131.078 109.326 131.078C109.326 131.078 109.162 131.028 109.598 129.767C109.86 129.025 109.821 128.216 109.489 127.499C109.489 127.499 108.562 124.374 110.199 122.005C110.199 122.005 110.908 118.88 111.127 117.267C111.277 116.146 112.22 111.958 112.781 109.508C112.813 109.37 112.844 109.237 112.873 109.11C113.681 109.153 114.292 109.202 114.292 109.202C114.292 109.202 113.037 100.885 114.292 99.1708C115.547 97.457 113.31 84.3513 113.31 84.3513C113.31 84.3513 112.775 82.0609 112.445 79.724C112.426 79.5909 112.409 79.4579 112.392 79.3248C113.405 79.2475 114.422 79.2259 115.438 79.2603C118.058 79.4115 120.623 78.4538 120.678 77.4961C120.732 76.5383 122.151 72.7579 122.369 71.901C122.588 71.0441 122.752 68.1204 122.369 67.4148Z" fill="url(#paint0_linear_287_1319)"/>
<path d="M90.5238 164.654V169.321C90.5238 169.321 89.0514 170.927 87.4737 171.379C85.8961 171.831 86.2116 173.035 86.2116 173.035L85.7383 174.993C85.7383 174.993 83.7399 176.699 82.32 177.251C80.9001 177.803 78.4811 177.351 76.5879 175.946C75.7885 175.354 76.1041 174.091 76.8256 172.742C77.7656 171.099 78.9229 169.579 80.2691 168.217C80.9612 167.557 81.3419 166.192 81.5439 165.144C81.6932 164.359 81.7416 163.751 81.7416 163.751L90.5238 164.654Z" fill="#4C495A"/>
<path opacity="0.1" d="M90.5238 168.137V169.322C90.5238 169.322 89.0514 170.928 87.4737 171.379C85.8961 171.831 86.2116 173.035 86.2116 173.035L85.7383 174.993C85.7383 174.993 83.7399 176.699 82.32 177.251C80.9001 177.803 78.4811 177.351 76.5879 175.946C75.7885 175.354 76.1041 174.091 76.8256 172.742C76.7919 174.16 77.2316 175.752 79.3751 175.695C81.6886 175.625 83.918 174.852 85.7383 173.487C85.7383 173.487 85.6857 170.175 88.1048 169.422C88.989 169.143 89.8098 168.707 90.5238 168.137Z" fill="black"/>
<path d="M109.771 176.599C105.88 177.351 104.407 173.838 104.407 173.838C104.407 173.838 104.88 171.078 103.723 170.275C103.008 169.766 102.416 169.115 101.988 168.368V163.751L106.721 160.539L109.283 162.703L109.456 162.847C109.456 162.847 110.455 166.009 111.664 167.521C112.432 168.48 113.074 170.426 113.492 172.038C113.734 172.965 113.902 173.782 113.978 174.24C114.189 175.494 113.663 175.846 109.771 176.599Z" fill="#4C495A"/>
<path opacity="0.1" d="M109.771 176.599C105.88 177.351 104.407 173.838 104.407 173.838C104.407 173.838 104.88 171.078 103.723 170.275C103.008 169.766 102.416 169.115 101.988 168.368V166.579C102.739 167.336 104.155 168.802 104.46 169.422C104.88 170.275 104.933 173.387 106.879 173.939C108.825 174.491 112.611 174.993 112.926 173.587C113.058 173.053 113.247 172.534 113.492 172.038C113.734 172.965 113.902 173.782 113.978 174.24C114.189 175.494 113.663 175.846 109.771 176.599Z" fill="black"/>
<path opacity="0.1" d="M81.7415 163.751L90.5238 164.654V167.121C89.5331 167.681 88.1132 168.276 87.3159 167.665C86.1379 166.766 82.6355 165.624 81.5438 165.144C81.6932 164.359 81.7415 163.751 81.7415 163.751Z" fill="black"/>
<path opacity="0.1" d="M109.456 163.249C108.246 162.847 106.09 164.604 103.25 165.708C102.855 165.886 102.424 165.977 101.988 165.977V163.751L106.721 160.539L109.283 162.703C109.323 162.89 109.38 163.072 109.456 163.249Z" fill="black"/>
<path d="M112.558 107.993C112.558 107.993 112.392 108.732 112.154 109.804C111.614 112.243 110.705 116.413 110.56 117.529C110.35 119.135 109.666 122.246 109.666 122.246C108.088 124.605 108.982 127.717 108.982 127.717C109.302 128.433 109.339 129.235 109.088 129.975C108.667 131.23 108.825 131.28 108.825 131.28C108.825 131.28 110.297 132.836 109.613 133.94C108.93 135.044 110.56 136.901 110.56 136.901L110.192 148.143L110.56 155.871C110.56 155.871 109.35 157.528 109.765 158.331C110.179 159.134 109.719 160.438 109.719 160.438C109.719 160.438 109.929 161.091 109.456 161.442C108.982 161.793 109.456 162.847 109.456 162.847C108.246 162.446 106.09 164.202 103.25 165.306C100.41 166.411 101.357 163.801 101.357 163.801C101.357 163.801 99.1483 161.191 99.6216 160.89C100.095 160.589 100.884 156.323 100.884 156.323C98.675 153.412 99.6216 148.594 99.6216 148.594L99.9476 137.357C99.9476 137.357 99.5164 135.546 99.8845 134.743C100.253 133.94 98.8853 132.685 98.8853 132.685C98.8853 132.685 99.2535 131.18 98.8853 130.628C98.5172 130.076 98.4121 128.57 98.4121 128.57C98.4121 128.57 97.5181 123.852 97.5181 122.548C97.5181 121.243 96.3085 117.027 96.3085 117.027C96.7292 113.414 95.6774 112.51 95.6774 112.51C93.2584 113.614 94.8886 117.83 94.8886 119.587C94.8886 121.343 93.8369 124.053 93.8369 124.053C93.8369 124.053 93.3636 130.427 92.7851 131.631C92.2066 132.836 91.8911 135.445 91.8911 135.445C91.8911 135.445 92.8377 137.553 92.3959 138.607C91.9542 139.661 92.3959 144.278 92.3959 144.278C92.3959 144.278 92.0488 151.054 91.1023 153.262C90.1557 155.47 91.26 157.026 91.9563 158.08C92.6505 159.134 92.5221 160.338 91.5755 160.89C90.629 161.442 90.8919 161.743 91.6281 162.596C92.3644 163.45 91.6281 166.009 91.6281 166.009C91.6281 166.009 88.6306 168.267 87.3159 167.264C86.0012 166.26 81.7941 164.955 81.2682 164.604C80.7423 164.253 80.9001 163.249 81.6889 162.446C82.4777 161.643 82.057 161.542 82.057 161.542C79.9535 160.94 81.2682 159.083 81.2682 159.083C81.2682 159.083 83.4243 156.875 82.5303 155.671C81.6363 154.466 81.6363 150.953 82.2148 150.251C82.7933 149.548 82.1096 147.54 82.1096 147.54L80.8538 137.754C80.8538 137.754 80.7949 135.696 81.4786 135.445C82.1622 135.195 82.6881 134.592 82.1622 133.538C81.6363 132.484 82.7407 130.126 82.7407 130.126C83.3717 129.323 82.2674 125.86 80.9527 123.953C79.638 122.046 80.4268 116.475 80.4268 116.475C80.4268 116.475 79.4276 115.12 79.4276 114.467C79.4178 114.049 79.31 113.637 79.1121 113.263C78.6577 112.574 78.7461 111.017 78.9438 109.652C79.1352 108.331 79.4276 107.19 79.4276 107.19L112.558 107.993Z" fill="#5F5D7E"/>
<path d="M102.251 51.132L91.8912 53.4406C91.8912 53.4406 86.7901 49.3253 88.0522 47.1171C88.4856 46.3583 88.677 45.0635 88.7422 43.6944C88.7927 42.6244 88.7653 41.5062 88.7169 40.5607C88.6433 39.1936 88.5255 38.1839 88.5255 38.1839C88.5255 38.1839 99.1484 32.4626 98.7803 38.1839C98.7054 39.1366 98.7287 40.0941 98.8497 41.0425C98.9248 41.7173 99.1309 42.3729 99.4576 42.9757C100.026 43.9413 100.726 43.9553 100.726 43.9553L102.251 51.132Z" fill="#FDC2CC"/>
<path opacity="0.1" d="M98.8497 41.0425C97.3525 42.0674 95.5354 42.5778 93.6951 42.4903C91.8548 42.4028 90.1 41.7226 88.7169 40.5607C88.6433 39.1936 88.5255 38.1839 88.5255 38.1839C88.5255 38.1839 99.1484 32.4626 98.7803 38.1839C98.7054 39.1366 98.7287 40.0941 98.8497 41.0425Z" fill="black"/>
<path d="M94.0998 42.2995C98.6016 42.2995 102.251 38.8168 102.251 34.5206C102.251 30.2244 98.6016 26.7417 94.0998 26.7417C89.598 26.7417 85.9486 30.2244 85.9486 34.5206C85.9486 38.8168 89.598 42.2995 94.0998 42.2995Z" fill="#FDC2CC"/>
<path opacity="0.1" d="M102.251 51.1324L91.8912 53.441C91.8912 53.441 86.7901 49.3257 88.0522 47.1175C88.4856 46.3586 88.677 45.0638 88.7422 43.6948C88.9709 44.8853 89.6406 45.9576 90.629 46.716C92.9955 48.2216 92.6274 50.0785 92.6274 50.0785L96.8871 49.9279C96.6241 48.2718 98.2018 47.3684 98.7277 47.1677C99.2536 46.9669 98.9906 46.0636 98.9906 46.0636L99.4576 42.9761C100.026 43.9417 100.726 43.9557 100.726 43.9557L102.251 51.1324Z" fill="black"/>
<path opacity="0.1" d="M112.558 107.993C112.558 107.993 112.392 108.732 112.155 109.804C111.01 109.746 109.498 109.704 108.825 109.85C107.668 110.101 103.04 110.202 103.04 110.202L91.5756 110.589V110.252C90.2569 110.262 88.9399 110.346 87.6315 110.503C85.6857 110.754 82.6356 110.402 80.6898 110.101C80.0909 110.019 79.5046 109.868 78.9438 109.652C79.1353 108.331 79.4277 107.19 79.4277 107.19L112.558 107.993Z" fill="black"/>
<path d="M111.664 76.1249C111.498 77.0623 111.62 78.6161 111.831 80.1498C112.148 82.4765 112.664 84.757 112.664 84.757C112.664 84.757 114.82 97.8055 113.61 99.5118C112.401 101.218 113.61 109.499 113.61 109.499C113.61 109.499 109.982 109.198 108.825 109.449C107.668 109.7 103.04 109.8 103.04 109.8L91.5756 110.187V109.85C90.2569 109.86 88.9399 109.944 87.6315 110.101C85.6857 110.352 82.6356 110.001 80.6898 109.7C78.744 109.399 77.9552 108.796 78.1655 108.495C78.3759 108.194 77.9552 99.9635 77.9552 99.9635L77.9026 93.2887C77.9026 93.2887 77.85 88.5711 79.0595 87.5172C79.5539 87.0876 79.9599 85.4997 80.2691 83.7733C80.7129 81.274 80.9527 78.4836 80.9527 78.4836L72.9593 58.0577L72.8015 57.6562C72.8015 57.6562 75.1154 54.2435 74.7473 52.5874C74.3792 50.9312 76.9034 49.4758 76.9034 49.4758C76.9034 49.4758 81.689 47.4683 82.0045 46.8661C82.32 46.2639 85.6331 46.1133 85.6331 46.1133C85.6331 46.1133 87.5263 45.1598 87.8523 44.5415C87.9317 44.3687 88.053 44.2166 88.2063 44.0975C88.3596 43.9785 88.5404 43.896 88.7337 43.8569C88.9566 45.062 89.63 46.1491 90.629 46.9163C92.9955 48.4219 92.6274 50.2788 92.6274 50.2788L96.887 50.1282C96.6241 48.4721 98.2017 47.5687 98.7276 47.368C99.2535 47.1672 98.9906 46.2639 98.9906 46.2639L99.4828 43.0138C99.71 42.4738 101.304 44.5415 101.304 44.5415C101.304 44.5415 105.354 45.8624 105.617 45.9627C105.88 46.0631 109.298 47.0669 109.298 47.0669C109.298 47.0669 113.505 49.6766 113.505 50.329C113.505 50.9814 115.819 54.4945 115.819 54.4945C115.819 54.4945 115.792 54.635 115.741 54.8919C115.207 57.6582 112.049 73.9668 111.664 76.1249Z" fill="#4CAD73"/>
<path d="M94.8361 67.9949C94.8361 67.9949 85.7383 65.6864 84.8443 65.1343C83.9503 64.5823 78.6914 67.7942 85.1072 72.1604C85.1072 72.1604 92.9525 73.7162 95.0512 72.1604C97.15 70.6046 94.8361 67.9949 94.8361 67.9949Z" fill="#FDC2CC"/>
<path opacity="0.1" d="M114.504 54.2437L115.609 54.2938L118.869 62.6248C118.869 62.6248 120.815 66.991 121.183 67.6937C121.551 68.3963 121.393 71.3071 121.183 72.1603C120.973 73.0134 119.605 76.7774 119.553 77.731C119.5 78.6845 117.028 79.6381 114.504 79.4875C111.98 79.3369 106.09 80.0897 106.09 80.0897C106.09 80.0897 99.7998 79.4623 95.9405 81.3444C95.9405 81.3444 93.4688 76.4763 93.7317 67.3925C93.7317 67.3925 98.0966 67.1416 99.2009 67.5431C100.305 67.9446 105.669 69.0989 106.353 68.4966C107.037 67.8944 110.139 69.6007 110.139 69.6007C110.297 69.2698 110.379 68.9104 110.379 68.5468C110.379 68.1832 110.297 67.8238 110.139 67.4929C109.613 66.2884 108.719 62.5244 109.876 61.32C111.033 60.1155 114.504 54.2437 114.504 54.2437Z" fill="black"/>
<path opacity="0.1" d="M111.831 80.15C109.22 80.3187 106.3 80.692 106.3 80.692C106.3 80.692 100.011 80.0637 96.1508 81.9467C96.1508 81.9467 93.6791 77.0786 93.9421 67.9948C93.9421 67.9948 98.3069 67.7439 99.4113 68.1454C100.516 68.5469 105.88 69.7012 106.563 69.0989C107.247 68.4967 110.35 70.203 110.35 70.203C110.508 69.8721 110.589 69.5127 110.589 69.1491C110.589 68.7855 110.508 68.4261 110.35 68.0952C109.824 66.8907 108.93 63.1267 110.087 61.9223C111.244 60.7178 114.715 54.8459 114.715 54.8459L115.741 54.8921C115.207 57.6584 112.049 73.967 111.664 76.1251C111.498 77.0625 111.62 78.6163 111.831 80.15Z" fill="black"/>
<path d="M114.715 54.4446L115.819 54.4948L119.079 62.8257C119.079 62.8257 121.025 67.192 121.393 67.8946C121.761 68.5972 121.604 71.508 121.393 72.3612C121.183 73.2144 119.816 76.9784 119.763 77.9319C119.71 78.8854 117.239 79.839 114.715 79.6884C112.19 79.5379 106.3 80.2907 106.3 80.2907C106.3 80.2907 100.01 79.6632 96.1508 81.5453C96.1508 81.5453 93.6791 76.6772 93.9421 67.5935C93.9421 67.5935 98.3069 67.3425 99.4113 67.744C100.516 68.1455 105.88 69.2998 106.563 68.6976C107.247 68.0953 110.35 69.8017 110.35 69.8017C110.508 69.4707 110.589 69.1114 110.589 68.7478C110.589 68.3841 110.508 68.0248 110.35 67.6938C109.824 66.4894 108.93 62.7254 110.087 61.5209C111.244 60.3164 114.715 54.4446 114.715 54.4446Z" fill="#4CAD73"/>
<path d="M103.604 72.8787L104.916 73.6541L112.229 62.3837L110.916 61.6083L103.604 72.8787Z" fill="#DFE6F5"/>
<path d="M115.978 60.8573C117.27 58.8655 117.131 56.5496 115.667 55.6846C114.204 54.8195 111.969 55.733 110.677 57.7248C109.385 59.7166 109.524 62.0325 110.988 62.8976C112.451 63.7626 114.686 62.8492 115.978 60.8573Z" fill="#DFE6F5"/>
<path opacity="0.1" d="M115.23 60.4154C116.158 58.9857 116.058 57.3233 115.007 56.7024C113.956 56.0815 112.352 56.7372 111.425 58.1669C110.497 59.5966 110.597 61.259 111.648 61.8799C112.699 62.5008 114.302 61.8451 115.23 60.4154Z" fill="black"/>
<path d="M99.8665 78.6392L101.179 79.4146L105.729 72.4019L104.416 71.6265L99.8665 78.6392Z" fill="#53526B"/>
<path d="M92.1541 79.1362L95.362 78.283C95.362 78.283 111.191 78.6845 105.88 72.4614C105.88 72.4614 103.092 69.9019 97.2552 71.9595C91.4178 74.0172 89.7876 74.2681 89.7876 74.2681L92.1541 79.1362Z" fill="#FDC2CC"/>
<path opacity="0.1" d="M89.7876 52.8888C90.1361 52.8888 90.4186 52.6192 90.4186 52.2866C90.4186 51.954 90.1361 51.6843 89.7876 51.6843C89.439 51.6843 89.1565 51.954 89.1565 52.2866C89.1565 52.6192 89.439 52.8888 89.7876 52.8888Z" fill="black"/>
<path opacity="0.1" d="M100.621 52.5375C100.969 52.5375 101.252 52.2679 101.252 51.9352C101.252 51.6026 100.969 51.333 100.621 51.333C100.272 51.333 99.9897 51.6026 99.9897 51.9352C99.9897 52.2679 100.272 52.5375 100.621 52.5375Z" fill="black"/>
<path d="M89.7876 52.6879C90.1361 52.6879 90.4186 52.4182 90.4186 52.0856C90.4186 51.753 90.1361 51.4834 89.7876 51.4834C89.439 51.4834 89.1565 51.753 89.1565 52.0856C89.1565 52.4182 89.439 52.6879 89.7876 52.6879Z" fill="white"/>
<path opacity="0.1" d="M90.6816 61.2196C91.0301 61.2196 91.3127 60.95 91.3127 60.6174C91.3127 60.2848 91.0301 60.0151 90.6816 60.0151C90.3331 60.0151 90.0505 60.2848 90.0505 60.6174C90.0505 60.95 90.3331 61.2196 90.6816 61.2196Z" fill="black"/>
<path opacity="0.1" d="M100.936 60.6175C101.285 60.6175 101.567 60.3479 101.567 60.0153C101.567 59.6827 101.285 59.4131 100.936 59.4131C100.588 59.4131 100.305 59.6827 100.305 60.0153C100.305 60.3479 100.588 60.6175 100.936 60.6175Z" fill="black"/>
<path d="M90.6816 61.0189C91.0301 61.0189 91.3127 60.7493 91.3127 60.4167C91.3127 60.0841 91.0301 59.8145 90.6816 59.8145C90.3331 59.8145 90.0505 60.0841 90.0505 60.4167C90.0505 60.7493 90.3331 61.0189 90.6816 61.0189Z" fill="white"/>
<path opacity="0.1" d="M100.673 89.6788C101.022 89.6788 101.304 89.4092 101.304 89.0766C101.304 88.744 101.022 88.4744 100.673 88.4744C100.325 88.4744 100.042 88.744 100.042 89.0766C100.042 89.4092 100.325 89.6788 100.673 89.6788Z" fill="black"/>
<path opacity="0.1" d="M92.3681 89.6788C92.7166 89.6788 92.9992 89.4092 92.9992 89.0766C92.9992 88.744 92.7166 88.4744 92.3681 88.4744C92.0196 88.4744 91.7371 88.744 91.7371 89.0766C91.7371 89.4092 92.0196 89.6788 92.3681 89.6788Z" fill="black"/>
<path d="M100.673 89.4782C101.022 89.4782 101.304 89.2085 101.304 88.8759C101.304 88.5433 101.022 88.2737 100.673 88.2737C100.325 88.2737 100.042 88.5433 100.042 88.8759C100.042 89.2085 100.325 89.4782 100.673 89.4782Z" fill="white"/>
<path opacity="0.1" d="M92.9991 99.7631C93.3476 99.7631 93.6302 99.4935 93.6302 99.1608C93.6302 98.8282 93.3476 98.5586 92.9991 98.5586C92.6506 98.5586 92.368 98.8282 92.368 99.1608C92.368 99.4935 92.6506 99.7631 92.9991 99.7631Z" fill="black"/>
<path opacity="0.1" d="M100.936 99.1607C101.285 99.1607 101.567 98.8911 101.567 98.5585C101.567 98.2259 101.285 97.9563 100.936 97.9563C100.588 97.9563 100.305 98.2259 100.305 98.5585C100.305 98.8911 100.588 99.1607 100.936 99.1607Z" fill="black"/>
<path d="M92.9991 99.5621C93.3476 99.5621 93.6302 99.2925 93.6302 98.9599C93.6302 98.6273 93.3476 98.3577 92.9991 98.3577C92.6506 98.3577 92.368 98.6273 92.368 98.9599C92.368 99.2925 92.6506 99.5621 92.9991 99.5621Z" fill="white"/>
<path d="M92.3681 89.4782C92.7166 89.4782 92.9992 89.2085 92.9992 88.8759C92.9992 88.5433 92.7166 88.2737 92.3681 88.2737C92.0196 88.2737 91.7371 88.5433 91.7371 88.8759C91.7371 89.2085 92.0196 89.4782 92.3681 89.4782Z" fill="white"/>
<path d="M100.936 98.9601C101.285 98.9601 101.567 98.6905 101.567 98.3579C101.567 98.0252 101.285 97.7556 100.936 97.7556C100.588 97.7556 100.305 98.0252 100.305 98.3579C100.305 98.6905 100.588 98.9601 100.936 98.9601Z" fill="white"/>
<path d="M100.621 52.3368C100.969 52.3368 101.252 52.0672 101.252 51.7346C101.252 51.402 100.969 51.1323 100.621 51.1323C100.272 51.1323 99.9897 51.402 99.9897 51.7346C99.9897 52.0672 100.272 52.3368 100.621 52.3368Z" fill="white"/>
<path d="M100.936 60.4166C101.285 60.4166 101.567 60.147 101.567 59.8144C101.567 59.4818 101.285 59.2122 100.936 59.2122C100.588 59.2122 100.305 59.4818 100.305 59.8144C100.305 60.147 100.588 60.4166 100.936 60.4166Z" fill="white"/>
<path opacity="0.1" d="M101.883 80.9431C101.883 80.9431 101.988 94.6943 102.304 97.1534C102.304 97.1534 102.418 81.5914 101.883 80.9431Z" fill="black"/>
<path opacity="0.1" d="M104.565 87.3167C104.348 87.3167 108.877 103.427 109.088 104.581C109.298 105.735 105.827 87.3167 104.565 87.3167Z" fill="black"/>
<path opacity="0.1" d="M108.141 84.707C108.141 84.8576 110.665 93.4395 111.927 93.8912C113.189 94.3428 108.141 84.707 108.141 84.707Z" fill="black"/>
<path opacity="0.1" d="M118.08 67.9949C118.08 67.9949 112.716 68.223 112.558 68.9621C112.401 69.7012 118.08 67.9949 118.08 67.9949Z" fill="black"/>
<path opacity="0.1" d="M108.614 133.438C108.614 133.438 104.775 134.994 105.354 135.094C105.932 135.195 108.614 133.438 108.614 133.438Z" fill="black"/>
<path opacity="0.1" d="M100.673 131.129C100.524 130.808 103.25 132.434 103.25 132.635C103.25 132.836 100.884 131.581 100.673 131.129Z" fill="black"/>
<path opacity="0.1" d="M104.249 136.399C104.249 136.399 107.247 136.255 107.457 137.356C107.668 138.457 104.249 136.399 104.249 136.399Z" fill="black"/>
<path opacity="0.1" d="M82.6881 136.393C82.6881 136.393 85.9486 135.785 86.2115 136.393C86.4745 137.001 82.6881 136.393 82.6881 136.393Z" fill="black"/>
<path opacity="0.1" d="M83.8976 155.32C83.8976 155.32 84.1114 157.879 83.3209 158.481C82.5303 159.084 83.8976 155.32 83.8976 155.32Z" fill="black"/>
<path opacity="0.1" d="M83.4995 160.74C84.5288 160.84 89.9454 159.937 89.8928 160.74C89.8402 161.543 83.4995 160.74 83.4995 160.74Z" fill="black"/>
<path opacity="0.1" d="M108.351 157.628C108.351 157.628 106.504 157.357 106.954 158.547L108.351 157.628Z" fill="black"/>
<path opacity="0.1" d="M74.011 57.4557H73.0118L71.4868 62.7755C71.4868 62.7755 70.9609 64.6324 70.435 65.0841C69.9091 65.5358 70.9083 69.6511 70.9083 69.6511C70.9083 69.6511 70.3298 72.5619 69.8565 73.3147C69.3832 74.0675 70.5928 75.9244 70.5928 75.9244L73.0118 81.3446L79.4276 82.9505C79.4276 82.9505 90.7342 85.3093 91.26 85.6606C91.7859 86.0119 92.2592 85.51 92.6273 82.2479C92.9955 78.9858 93.9946 72.6623 94.7835 72.3612C94.7835 72.3612 88.4728 73.0136 87.947 72.9132C87.4211 72.8128 84.8968 72.9634 84.8968 72.9634C84.8968 72.9634 81.5837 72.7627 81.0579 73.0638C80.532 73.3649 81.7415 71.6061 81.7415 71.6061C81.963 70.8008 81.963 69.9546 81.7415 69.1492C81.3734 67.7942 81.1631 52.4371 74.011 57.4557Z" fill="black"/>
<path opacity="0.1" d="M94.5731 72.9634C93.7843 73.2646 92.7851 79.5881 92.417 82.8502C92.0488 86.1123 91.5755 86.6142 91.0497 86.2629C90.6226 85.9778 83.0857 84.3678 80.269 83.7736C80.7129 81.2743 80.9527 78.484 80.9527 78.484L72.9592 58.058H73.8006C80.9527 53.0394 81.163 68.3965 81.5312 69.7515C81.7526 70.5569 81.7526 71.4032 81.5312 72.2086C81.5312 72.2086 80.3216 73.9672 80.8475 73.6661C81.3734 73.3649 84.6865 73.5657 84.6865 73.5657C84.6865 73.5657 87.2107 73.4151 87.7366 73.5155C88.2625 73.6159 94.5731 72.9634 94.5731 72.9634Z" fill="black"/>
<path d="M73.8007 57.6564H72.8015L71.2765 62.9762C71.2765 62.9762 70.7506 64.8331 70.2247 65.2848C69.6988 65.7365 70.698 69.8518 70.698 69.8518C70.698 69.8518 70.1195 72.7626 69.6462 73.5154C69.1729 74.2682 70.3825 76.1251 70.3825 76.1251L72.8015 81.5452L79.2173 83.1512C79.2173 83.1512 90.5238 85.51 91.0497 85.8613C91.5756 86.2126 92.0489 85.7107 92.417 82.4486C92.7851 79.1865 93.7843 72.863 94.5732 72.5619C94.5732 72.5619 88.2625 73.2143 87.7367 73.1139C87.2108 73.0135 84.6865 73.1641 84.6865 73.1641C84.6865 73.1641 81.3734 72.9634 80.8476 73.2645C80.3217 73.5656 81.5312 71.8068 81.5312 71.8068C81.7526 71.0015 81.7526 70.1553 81.5312 69.3499C81.1631 67.9949 80.9527 52.6378 73.8007 57.6564Z" fill="#4CAD73"/>
<path opacity="0.1" d="M77.219 75.824C77.219 75.824 74.3266 81.0434 73.8007 80.4412C73.2748 79.8389 77.219 75.824 77.219 75.824Z" fill="black"/>
<path opacity="0.1" d="M74.2213 72.8518C74.2213 72.8518 71.5393 74.9708 72.8015 75.5228C74.0636 76.0749 74.2213 72.8518 74.2213 72.8518Z" fill="black"/>
<path opacity="0.1" d="M76.7456 70.2532C76.956 70.3034 80.6372 71.0011 80.6897 71.3047C80.7423 71.6082 76.7456 70.2532 76.7456 70.2532Z" fill="black"/>
<path opacity="0.1" d="M102.274 33.4887C102.16 33.5271 102.062 33.601 101.997 33.6985C101.932 33.796 101.903 33.9116 101.914 34.0267C101.7 34.2074 101.399 33.9946 101.225 33.7638C101.048 33.5349 100.848 33.2519 100.581 33.284C100.454 33.3226 100.331 33.3716 100.213 33.4305C99.792 33.559 99.4365 33.0873 99.2009 32.6737C98.7907 31.949 98.3805 31.225 97.9703 30.5016C97.1478 30.9573 96.176 30.4796 95.3598 30.0078C94.5437 29.536 93.5718 29.0563 92.7473 29.512C91.5377 30.1784 91.4935 32.4007 90.2398 32.9487C89.8359 33.1254 89.3669 33.0872 88.9924 33.3302C88.6222 33.571 88.4224 34.0348 88.2562 34.4784C88.1947 34.731 88.0502 34.9582 87.8439 35.1268C87.7128 35.1922 87.5669 35.226 87.419 35.2252C87.0473 35.2855 86.6651 35.2343 86.3252 35.0786C86.1469 34.9718 86.0123 34.8101 85.9434 34.6203C85.8746 34.4305 85.8757 34.2239 85.9465 34.0348C85.9565 34.0147 85.9677 33.9953 85.9802 33.9766C86.1149 33.8211 86.2359 33.6552 86.342 33.4807C86.4682 33.1615 86.2873 32.7902 86.3273 32.4449C86.3925 31.8547 87.0467 31.5435 87.1581 30.9634C87.2044 30.7365 87.156 30.4936 87.2002 30.2648C87.2064 30.2348 87.2148 30.2053 87.2255 30.1764L86.8405 30.4294C87.2717 29.9496 87.4884 29.2831 87.804 28.7009C88.1545 28.0635 88.6368 27.5006 89.2218 27.0462C89.8068 26.5917 90.4823 26.2553 91.2075 26.0571C92.579 25.6757 94.0283 25.7801 95.4124 26.1033C96.7286 26.4162 97.9895 26.912 99.1546 27.5747C99.5709 27.7878 99.9407 28.0746 100.244 28.4199C100.499 28.7779 100.715 29.1592 100.89 29.5581C101.298 30.3651 102.413 31.1119 101.525 31.2243C100.787 31.3187 101.46 31.8125 101.847 32.1457C101.934 32.2111 102.01 32.2898 102.07 32.3786C102.134 32.5056 102.164 32.646 102.156 32.7868C102.148 32.9276 102.102 33.0641 102.024 33.1836C101.874 33.3643 102.48 33.4004 102.274 33.4887Z" fill="black"/>
<path d="M102.274 33.2881C102.16 33.3265 102.062 33.4003 101.997 33.4978C101.932 33.5954 101.903 33.7109 101.914 33.8261C101.7 34.0067 101.399 33.7939 101.225 33.5631C101.048 33.3342 100.848 33.0512 100.581 33.0833C100.454 33.1219 100.331 33.171 100.213 33.2298C99.792 33.3583 99.4365 32.8866 99.2009 32.473C98.7907 31.7483 98.3805 31.0243 97.9703 30.301C97.1478 30.7567 96.176 30.2789 95.3599 29.8071C94.5437 29.3354 93.5718 28.8556 92.7473 29.3113C91.5377 29.9778 91.4935 32.2 90.2398 32.7481C89.836 32.9247 89.3669 32.8866 88.9924 33.1295C88.6222 33.3704 88.4224 33.8341 88.2562 34.2777C88.1947 34.5303 88.0502 34.7575 87.8439 34.9261C87.7128 34.9916 87.5669 35.0253 87.419 35.0245C87.0473 35.0848 86.6651 35.0336 86.3252 34.878C86.1469 34.7711 86.0123 34.6094 85.9434 34.4196C85.8746 34.2298 85.8757 34.0232 85.9465 33.8341C85.9565 33.814 85.9677 33.7946 85.9802 33.7759C86.1149 33.6204 86.2359 33.4546 86.342 33.28C86.4682 32.9608 86.2873 32.5895 86.3273 32.2442C86.3925 31.654 87.0467 31.3428 87.1582 30.7627C87.2044 30.5358 87.156 30.2929 87.2002 30.0641C87.2064 30.0341 87.2148 30.0046 87.2255 29.9757L86.8405 30.2287C87.2718 29.7489 87.4884 29.0824 87.804 28.5003C88.1545 27.8629 88.6368 27.2999 89.2218 26.8455C89.8068 26.3911 90.4823 26.0546 91.2075 25.8564C92.579 25.475 94.0283 25.5794 95.4124 25.9026C96.7286 26.2155 97.9895 26.7113 99.1546 27.3741C99.5709 27.5871 99.9407 27.8739 100.244 28.2192C100.499 28.5772 100.715 28.9585 100.89 29.3574C101.298 30.1644 102.413 30.9112 101.525 31.0236C100.787 31.118 101.46 31.6118 101.847 31.9451C101.934 32.0104 102.01 32.0891 102.07 32.1779C102.134 32.3049 102.164 32.4453 102.156 32.5861C102.148 32.7269 102.102 32.8634 102.024 32.9829C101.874 33.1636 102.48 33.1997 102.274 33.2881Z" fill="#865A61"/>
<path opacity="0.1" d="M101.847 31.9451L101.763 32.7902C101.763 32.7902 92.9366 22.1145 86.0707 34.1693C86.0707 34.1693 86.037 34.0228 85.9802 33.7759C86.115 33.6204 86.236 33.4546 86.342 33.28C86.4682 32.9608 86.2873 32.5895 86.3273 32.2442C86.3925 31.654 87.0467 31.3428 87.1582 30.7627C87.2045 30.5358 87.1561 30.2929 87.2003 30.0641C87.2064 30.0341 87.2149 30.0046 87.2255 29.9757L86.8406 30.2287C87.2718 29.7489 87.4885 29.0824 87.804 28.5003C88.1545 27.8629 88.6369 27.2999 89.2219 26.8455C89.8069 26.3911 90.4824 26.0546 91.2075 25.8564C92.579 25.475 94.0283 25.5794 95.4125 25.9026C96.7287 26.2155 97.9895 26.7113 99.1547 27.3741C99.5709 27.5871 99.9407 27.8739 100.244 28.2192C100.499 28.5772 100.715 28.9585 100.89 29.3574C101.298 30.1644 102.413 30.9112 101.525 31.0236C100.787 31.118 101.46 31.6118 101.847 31.9451Z" fill="black"/>
<g opacity="0.1">
<path opacity="0.1" d="M102.065 33.1785C102.021 33.2252 101.99 33.2808 101.972 33.3411C101.955 33.4013 101.952 33.4646 101.965 33.5259C101.75 33.7066 101.449 33.4938 101.275 33.263C101.098 33.0341 100.898 32.7511 100.631 32.7832C100.504 32.8218 100.381 32.8708 100.263 32.9297C99.8423 33.0582 99.4868 32.5864 99.2512 32.1729C98.841 31.4482 98.4309 30.7242 98.0207 30.0008C97.1982 30.4565 96.2263 29.9787 95.4102 29.507C94.594 29.0352 93.6221 28.5555 92.7976 29.0111C91.588 29.6776 91.5438 31.8999 90.2901 32.4479C89.8863 32.6246 89.4172 32.5864 89.0427 32.8294C88.6725 33.0702 88.4727 33.534 88.3065 33.9776C88.245 34.2302 88.1005 34.4574 87.8942 34.626C87.7631 34.6914 87.6172 34.7252 87.4693 34.7244C87.0976 34.7847 86.7154 34.7335 86.3755 34.5779C86.1717 34.4489 86.0256 34.2522 85.9655 34.026C85.9238 34.2058 85.9406 34.3936 86.0139 34.564C86.0872 34.7344 86.2134 34.8793 86.3755 34.9793C86.7154 35.135 87.0976 35.1862 87.4693 35.1259C87.6172 35.1267 87.7631 35.0929 87.8942 35.0275C88.1005 34.8588 88.245 34.6317 88.3065 34.3791C88.4727 33.9355 88.6725 33.4717 89.0427 33.2308C89.4172 32.9879 89.8862 33.0261 90.2901 32.8494C91.5438 32.3014 91.588 30.0791 92.7976 29.4126C93.6221 28.9569 94.594 29.4367 95.4102 29.9085C96.2263 30.3802 97.1982 30.858 98.0207 30.4023C98.4308 31.125 98.841 31.849 99.2512 32.5744C99.4868 32.9879 99.8423 33.4597 100.263 33.3312C100.381 33.2723 100.504 33.2233 100.631 33.1847C100.898 33.1526 101.098 33.4356 101.275 33.6645C101.449 33.8953 101.75 34.1081 101.965 33.9274C101.953 33.8123 101.982 33.6967 102.047 33.5992C102.113 33.5017 102.21 33.4278 102.325 33.3894C102.489 33.3192 102.14 33.2817 102.065 33.1785Z" fill="black"/>
<path opacity="0.1" d="M101.377 31.1728C101.441 31.1483 101.507 31.1322 101.576 31.1249C101.967 31.0753 101.969 30.9023 101.814 30.6553C101.74 30.6932 101.659 30.7164 101.576 30.7234C101.153 30.7774 101.193 30.9622 101.377 31.1728Z" fill="black"/>
<path opacity="0.1" d="M102.183 32.8545C102.212 32.725 102.211 32.591 102.181 32.4619C102.162 32.5419 102.126 32.6173 102.074 32.6829C102.008 32.7626 102.089 32.8141 102.183 32.8545Z" fill="black"/>
<path opacity="0.1" d="M86.3898 32.2759C86.3853 32.2988 86.3802 32.3215 86.3776 32.3453C86.369 32.5261 86.3828 32.7072 86.4187 32.8849C86.4435 32.6818 86.4337 32.4761 86.3898 32.2759Z" fill="black"/>
<path opacity="0.1" d="M87.2438 29.8267C87.1448 30.0056 87.0265 30.1743 86.8909 30.3298L87.2304 30.1067C87.2287 30.0132 87.2332 29.9197 87.2438 29.8267Z" fill="black"/>
</g>
<path d="M86.0702 33.9683C86.0702 33.9683 84.801 28.5535 85.2048 27.685C85.2048 27.685 84.1086 25.5395 84.1086 25.0287C84.0555 24.1762 83.7776 23.3504 83.3009 22.6277C82.724 21.7593 82.0894 17.7237 85.551 16.7531C89.0126 15.7825 91.6665 14.9141 92.0704 14.25C92.4743 13.5859 98.4167 13.9946 100.032 16.5488C101.648 19.1029 102.686 18.5921 102.686 18.5921C102.686 18.5921 105.167 20.0735 105.167 21.4017C105.167 22.7299 104.417 23.394 105.167 23.7005C105.917 24.007 105.34 29.524 102.051 29.6773L101.763 32.5891C101.763 32.5891 92.9358 21.9126 86.0702 33.9683Z" fill="#4CAD73"/>
<path opacity="0.1" d="M86.4482 17.8081C86.4482 17.8081 85.6856 22.074 87.0793 23.5043L86.4482 17.8081Z" fill="black"/>
<path opacity="0.1" d="M90.0242 16.8296C90.0242 16.8296 88.0784 21.3966 88.5517 22.2748L90.0242 16.8296Z" fill="black"/>
<path opacity="0.1" d="M91.7071 15.3745C91.7071 15.3745 90.3924 21.3216 91.0234 21.7984L91.7071 15.3745Z" fill="black"/>
<path opacity="0.1" d="M93.9684 16.9805C93.9684 16.9805 92.3382 20.7946 92.9955 21.3216L93.9684 16.9805Z" fill="black"/>
<path opacity="0.1" d="M97.0448 17.4321C97.0448 17.4321 95.1253 20.5437 95.5197 21.0958L97.0448 17.4321Z" fill="black"/>
<path opacity="0.1" d="M100.989 20.4683C100.989 20.4683 98.9379 20.9952 99.3586 21.6226L100.989 20.4683Z" fill="black"/>
<path opacity="0.1" d="M102.935 23.7051C102.935 23.7051 101.094 24.5582 101.436 25.0099L102.935 23.7051Z" fill="black"/>
<path opacity="0.1" d="M85.2048 27.685C85.2048 27.685 96.9611 23.1279 102.051 29.6773C102.051 29.6773 95.8727 24.6639 85.2048 27.685Z" fill="black"/>
<path d="M80.9564 65.13L82.5945 63.5486L87.226 67.9176L85.5879 69.4992L81.3285 65.4811L80.9564 65.13Z" fill="#53526B"/>
<path d="M70.2098 54.9919C70.2098 54.9919 77.3795 55.5742 84.0524 62.742L81.2712 65.427L70.2098 54.9919Z" fill="#DFE6F5"/>
<path d="M91.7149 67.8082C91.7149 67.8082 84.8237 65.4109 84.1466 64.8376C83.4694 64.2643 79.4861 67.5998 84.3458 72.1339C84.3458 72.1339 90.2881 73.7495 91.8778 72.1339C93.4675 70.5183 91.7149 67.8082 91.7149 67.8082Z" fill="#FDC2CC"/>
<path d="M219.273 113.628H217.871V143.715H219.273V113.628Z" fill="#535461"/>
<path d="M228.073 143.623L227.984 144.978L227.861 146.89L227.809 147.688L227.685 149.603L227.632 150.401L227.508 152.313L226.095 174.067C226.034 175.003 225.602 175.881 224.886 176.524C224.17 177.166 223.224 177.523 222.242 177.523H214.902C213.92 177.523 212.974 177.166 212.259 176.523C211.543 175.881 211.111 175.002 211.051 174.067L209.636 152.313L209.512 150.401L209.461 149.603L209.335 147.688L209.283 146.89L209.159 144.978L209.071 143.623C209.054 143.363 209.093 143.103 209.186 142.858C209.279 142.613 209.423 142.388 209.61 142.198C209.797 142.009 210.023 141.857 210.274 141.754C210.524 141.651 210.794 141.597 211.067 141.597H226.079C226.352 141.597 226.622 141.651 226.872 141.754C227.123 141.858 227.348 142.009 227.535 142.199C227.722 142.388 227.866 142.613 227.959 142.858C228.051 143.103 228.09 143.363 228.073 143.623Z" fill="#65617D"/>
<path d="M227.984 144.979L227.861 146.891H209.283L209.159 144.979H227.984Z" fill="#9D9CB5"/>
<path d="M227.809 147.688L227.685 149.603H209.461L209.334 147.688H227.809Z" fill="#9D9CB5"/>
<path d="M227.632 150.401L227.508 152.313H209.636L209.512 150.401H227.632Z" fill="#9D9CB5"/>
<path d="M207.021 124.905C215.176 130.535 218.572 139.342 218.572 139.342C218.572 139.342 208.745 139.02 200.589 133.39C192.434 127.76 189.038 118.954 189.038 118.954C189.038 118.954 198.865 119.275 207.021 124.905Z" fill="#4CAD73"/>
<path d="M189.038 118.954C189.038 118.954 199.238 124.357 202.51 128.83C205.783 133.303 218.572 139.342 218.572 139.342" stroke="#535461" stroke-width="2" stroke-miterlimit="10"/>
<path d="M212.285 113.561C216.724 116.626 218.572 121.419 218.572 121.419C218.572 121.419 213.223 121.244 208.784 118.18C204.345 115.115 202.497 110.322 202.497 110.322C202.497 110.322 207.846 110.497 212.285 113.561Z" fill="#4CAD73"/>
<path d="M202.497 110.322C202.497 110.322 208.049 113.263 209.83 115.698C211.611 118.133 218.572 121.419 218.572 121.419" stroke="#535461" stroke-width="2" stroke-miterlimit="10"/>
<path d="M225.022 121.175C219.924 126.523 218.845 133.511 218.845 133.511C218.845 133.511 226.033 131.828 231.132 126.48C236.23 121.132 237.309 114.144 237.309 114.144C237.309 114.144 230.121 115.827 225.022 121.175Z" fill="#4CAD73"/>
<path d="M237.309 114.144C237.309 114.144 230.667 119.626 228.98 123.403C227.292 127.18 218.845 133.511 218.845 133.511" stroke="#535461" stroke-width="2" stroke-miterlimit="10"/>
</g>
<defs>
<linearGradient id="paint0_linear_287_1319" x1="95.5753" y1="177.48" x2="95.5753" y2="13.252" gradientUnits="userSpaceOnUse">
<stop stop-color="#808080" stop-opacity="0.25"/>
<stop offset="0.53514" stop-color="#808080" stop-opacity="0.12"/>
<stop offset="1" stop-color="#808080" stop-opacity="0.1"/>
</linearGradient>
<clipPath id="clip0_287_1319">
<rect width="241" height="179" fill="white"/>
</clipPath>
</defs>
</svg>
